<?xml version="1.0" encoding="utf-8"?>
<!-- Generator: Adobe Illustrator 16.2.1, SVG Export Plug-In . SVG Version: 6.00 Build 0)  -->
<!DOCTYPE svg PUBLIC "-//W3C//DTD SVG 1.1//EN" "http://www.w3.org/Graphics/SVG/1.1/DTD/svg11.dtd">
<svg version="1.1" id="Layer_2" xmlns="http://www.w3.org/2000/svg" xmlns:xlink="http://www.w3.org/1999/xlink" x="0px" y="0px"
	 width="400px" height="400px" viewBox="0 0 400 400" enable-background="new 0 0 400 400" xml:space="preserve">
<g>
	<path fill="#C4CED4" d="M200.771,365.965c88.035,0,159.4-71.369,159.4-159.395c0-88.026-71.365-159.387-159.4-159.387
		c-88.026,0-159.397,71.36-159.397,159.387C41.374,294.596,112.744,365.965,200.771,365.965"/>
	<path fill="none" stroke="#003DA6" stroke-width="1.029" d="M200.771,365.965c88.035,0,159.4-71.369,159.4-159.395
		c0-88.026-71.365-159.387-159.4-159.387c-88.026,0-159.397,71.36-159.397,159.387C41.374,294.596,112.744,365.965,200.771,365.965z
		"/>
	<path fill="none" stroke="#000000" stroke-width="0.662" d="M200.76,362.664c86.272,0,156.206-69.94,156.206-156.213
		c0-86.267-69.934-156.202-156.206-156.202c-86.268,0-156.208,69.936-156.208,156.202
		C44.552,292.724,114.492,362.664,200.76,362.664z"/>
	<path fill="none" stroke="#000000" stroke-width="0.509" d="M200.76,362.664c86.272,0,156.206-69.94,156.206-156.213
		c0-86.267-69.934-156.202-156.206-156.202c-86.268,0-156.208,69.936-156.208,156.202
		C44.552,292.724,114.492,362.664,200.76,362.664z"/>
	<path d="M264.39,67.915c-3.554-6.285-34.437-19.973-63.589-19.973c-29.155,0-60.036,13.688-63.594,19.973v37.648H264.43
		L264.39,67.915z"/>
	<path fill="none" stroke="#003DA6" stroke-width="0.842" d="M264.39,67.915c-3.554-6.285-34.437-19.973-63.589-19.973
		c-29.155,0-60.036,13.688-63.594,19.973v37.648H264.43L264.39,67.915z"/>
	<path fill="none" stroke="#003DA6" stroke-width="0.689" d="M264.39,67.915c-3.554-6.285-34.437-19.973-63.589-19.973
		c-29.155,0-60.036,13.688-63.594,19.973v37.648H264.43L264.39,67.915z"/>
	<path d="M247.312,32.686c-16.285-7.689-31.133-9.966-47.101-10.134c-19.86-0.205-38.346,4.424-47.097,9.479v69.247h94.224
		L247.312,32.686z"/>
	<path fill="none" stroke="#003DA6" stroke-width="0.843" d="M247.312,32.686c-16.285-7.689-31.133-9.966-47.101-10.134
		c-19.86-0.205-38.346,4.424-47.097,9.479v69.247h94.224L247.312,32.686z"/>
	<path fill="none" stroke="#003DA6" stroke-width="0.69" d="M247.312,32.686c-16.285-7.689-31.133-9.966-47.101-10.134
		c-19.86-0.205-38.346,4.424-47.097,9.479v69.247h94.224L247.312,32.686z"/>
	<path fill="#FFFFFF" d="M184.283,33.485v0.841c-0.795,0.348-0.881,0.861-0.881,1.497v32.533c0,0.63,0.086,1.097,0.881,1.024v0.841
		l-6.018,0.8v-0.84c0.568-0.154,0.728-0.482,0.728-0.964c0-0.912-0.791-1.609-9.152-20.023v21.5c0,0.625,0.093,1.091,0.888,1.025
		v0.84l-6.019,1.595v-0.836c0.799-0.348,0.886-0.872,0.886-1.496V39.479c0-0.631-0.087-1.092-0.886-1.02v-0.841
		c0.805-0.308,6.91-1.886,7.632-2.03v0.841c-0.722,0.266-0.886,0.728-0.886,1.148c0,0.769,5.48,12.38,7.699,17.188V36.413
		c0-0.836-0.255-1.127-0.671-1.087v-0.835C179.089,34.306,183.53,33.532,184.283,33.485"/>
	<path fill="none" stroke="#FFFFFF" stroke-width="0.179" d="M184.283,33.485v0.841c-0.795,0.348-0.881,0.861-0.881,1.497v32.533
		c0,0.63,0.086,1.097,0.881,1.024v0.841l-6.018,0.8v-0.84c0.568-0.154,0.728-0.482,0.728-0.964c0-0.912-0.791-1.609-9.152-20.023
		v21.5c0,0.625,0.093,1.091,0.888,1.025v0.84l-6.019,1.595v-0.836c0.799-0.348,0.886-0.872,0.886-1.496V39.479
		c0-0.631-0.087-1.092-0.886-1.02v-0.841c0.805-0.308,6.91-1.886,7.632-2.03v0.841c-0.722,0.266-0.886,0.728-0.886,1.148
		c0,0.769,5.48,12.38,7.699,17.188V36.413c0-0.836-0.255-1.127-0.671-1.087v-0.835C179.089,34.306,183.53,33.532,184.283,33.485z"/>
	<path fill="#FFFFFF" d="M193.279,34.014c0-0.425-0.096-0.754-0.887-0.845v-0.575h12.063c3.424,0,5.928,3.896,5.928,8.592
		c0,2.851-1.277,8.592-3.041,9.166v0.092c2.121,0.856,3.67,4.552,3.67,8.069c0,3.794-1.906,11.012-6.397,11.012h-12.222v-0.569
		c0.791-0.098,0.887-0.43,0.887-0.852V34.014z M198.026,47.974h4.308c2.727,0,3.418-4.266,3.418-6.168
		c0-1.901-0.691-4.178-3.418-4.178h-4.308V47.974z M198.026,64.49h5.383c2.214,0,3.102-4.742,3.102-6.828
		c0-2.092-0.888-4.845-3.102-4.845h-5.383V64.49z"/>
	<path fill="none" stroke="#FFFFFF" stroke-width="0.179" d="M193.279,34.014c0-0.425-0.096-0.754-0.887-0.845v-0.575h12.063
		c3.424,0,5.928,3.896,5.928,8.592c0,2.851-1.277,8.592-3.041,9.166v0.092c2.121,0.856,3.67,4.552,3.67,8.069
		c0,3.794-1.906,11.012-6.397,11.012h-12.222v-0.569c0.791-0.098,0.887-0.43,0.887-0.852V34.014z M198.026,47.974h4.308
		c2.727,0,3.418-4.266,3.418-6.168c0-1.901-0.691-4.178-3.418-4.178h-4.308V47.974z M198.026,64.49h5.383
		c2.214,0,3.102-4.742,3.102-6.828c0-2.092-0.888-4.845-3.102-4.845h-5.383V64.49z"/>
	<path fill="#FFFFFF" d="M222.988,63.521c-0.826,5.121-1.011,5.747-1.011,6.188c0,0.441,0.124,0.759,0.569,0.872l-0.103,0.773
		l-5.64-0.928v-0.881c0.446-0.103,0.637-0.344,0.825-1.466c0.287-1.61,5.767-31.395,5.767-31.835c0-0.508-0.348-0.743-0.634-0.882
		v-0.886l8.264,2.117v0.877c-0.339-0.016-0.57,0.076-0.57,0.805c0,0.584,3.901,21.715,5.865,33.312
		c0.317,1.835,0.502,2.317,0.886,2.415v0.876l-6.238-1.6v-0.871c0.441,0.041,0.595-0.287,0.595-0.728
		c0-0.287-0.947-5.527-1.075-6.511L222.988,63.521z M223.782,57.621l5.885,1.507l-3.065-16.809L223.782,57.621z"/>
	<path fill="none" stroke="#FFFFFF" stroke-width="0.179" d="M222.988,63.521c-0.826,5.121-1.011,5.747-1.011,6.188
		c0,0.441,0.124,0.759,0.569,0.872l-0.103,0.773l-5.64-0.928v-0.881c0.446-0.103,0.637-0.344,0.825-1.466
		c0.287-1.61,5.767-31.395,5.767-31.835c0-0.508-0.348-0.743-0.634-0.882v-0.886l8.264,2.117v0.877
		c-0.339-0.016-0.57,0.076-0.57,0.805c0,0.584,3.901,21.715,5.865,33.312c0.317,1.835,0.502,2.317,0.886,2.415v0.876l-6.238-1.6
		v-0.871c0.441,0.041,0.595-0.287,0.595-0.728c0-0.287-0.947-5.527-1.075-6.511L222.988,63.521z M223.782,57.621l5.885,1.507
		l-3.065-16.809L223.782,57.621z"/>
	<path fill="#CC6D19" d="M121.797,294.102c50.788,44.596,126.92,38.188,170.054-14.312c43.134-52.51,36.945-131.222-13.836-175.815
		c-50.787-44.6-126.931-38.191-170.064,14.312C64.822,170.792,71.02,249.503,121.797,294.102"/>
	<path fill="none" stroke="#000000" stroke-width="1.072" d="M121.797,294.102c50.788,44.596,126.92,38.188,170.054-14.312
		c43.134-52.51,36.945-131.222-13.836-175.815c-50.787-44.6-126.931-38.191-170.064,14.312
		C64.822,170.792,71.02,249.503,121.797,294.102z"/>
	<path fill="none" stroke="#000000" stroke-width="0.919" d="M121.797,294.102c50.788,44.596,126.92,38.188,170.054-14.312
		c43.134-52.51,36.945-131.222-13.836-175.815c-50.787-44.6-126.931-38.191-170.064,14.312
		C64.822,170.792,71.02,249.503,121.797,294.102z"/>
	<path fill="none" stroke="#000000" stroke-width="1.072" d="M202.748,73.575c-31.03,71.278-34.444,189.037,11.673,248.57"/>
	<path fill="none" stroke="#000000" stroke-width="1.072" d="M247.148,84.166c9.227,20.136,21.781,102.979-9.243,185.155
		c-7.43,19.654-11.744,26.831-10.068,31.445c2.958,8.12,13.832,10.059,30.19,6.705l2.435-0.518"/>
	<path fill="none" stroke="#000000" stroke-width="0.919" d="M202.748,73.575c-31.03,71.278-34.444,189.037,11.673,248.57"/>
	<path fill="none" stroke="#000000" stroke-width="1.072" d="M121.571,294.088c33.315,14.641,127.238,30.573,186.762-43.21"/>
	<path fill="none" stroke="#000000" stroke-width="0.919" d="M121.571,294.088c33.315,14.641,127.238,30.573,186.762-43.21"/>
	<path fill="none" stroke="#000000" stroke-width="1.072" d="M152.032,83.756c-10.287,13.292-73.445,108.419,0.97,194.789
		c9.833,11.406,23.971,19.823,25.575,28.088c1.467,7.55-2.307,12.158-6.079,14.26"/>
	<path fill="none" stroke="#000000" stroke-width="0.919" d="M152.032,83.756c-10.287,13.292-73.445,108.419,0.97,194.789
		c9.833,11.406,23.971,19.823,25.575,28.088c1.467,7.55-2.307,12.158-6.079,14.26"/>
	<path fill="none" stroke="#000000" stroke-width="0.919" d="M247.148,84.166c9.227,20.136,21.781,102.979-9.243,185.155
		c-7.43,19.654-11.744,26.831-10.068,31.445c2.958,8.12,13.832,10.059,30.19,6.705l2.435-0.518"/>
	<path d="M195.705,121.64c-107.224,0-145.222,38.755-163.405,48.696v121.977c6.337,4.847,12.842,8.302,17.338,10.07
		c12.488-10.525,27.364-20.511,46.102-27.715c22.977-9.262,63.331-18.803,101.098-18.973c39.73-0.184,73.965,5.097,107.636,19.599
		c18.73,7.212,33.885,17.403,46.373,27.924c4.485-1.765,11.246-6.214,17.43-10.222V171.177
		C341.449,152.429,310.572,121.64,195.705,121.64"/>
	<path fill="none" stroke="#000000" stroke-width="0.473" d="M195.705,121.64c-107.224,0-145.222,38.755-163.405,48.696v121.977
		c6.337,4.847,12.842,8.302,17.338,10.07c12.488-10.525,27.364-20.511,46.102-27.715c22.977-9.262,63.331-18.803,101.098-18.973
		c39.73-0.184,73.965,5.097,107.636,19.599c18.73,7.212,33.885,17.403,46.373,27.924c4.485-1.765,11.246-6.214,17.43-10.222V171.177
		C341.449,152.429,310.572,121.64,195.705,121.64z"/>
	<path fill="none" stroke="#000000" stroke-width="0.32" d="M195.705,121.64c-107.224,0-145.222,38.755-163.405,48.696v121.977
		c6.337,4.847,12.842,8.302,17.338,10.07c12.488-10.525,27.364-20.511,46.102-27.715c22.977-9.262,63.331-18.803,101.098-18.973
		c39.73-0.184,73.965,5.097,107.636,19.599c18.73,7.212,33.885,17.403,46.373,27.924c4.485-1.765,11.246-6.214,17.43-10.222V171.177
		C341.449,152.429,310.572,121.64,195.705,121.64z"/>
	<path fill="#003DA6" d="M200.345,249.646c39.719-0.04,78.812,8.131,103.917,18.84c18.736,7.208,34.562,16.876,47.05,27.396
		c4.384-1.061,9.207-4.681,11.042-5.978V143.919c-32.445-28.513-92.747-49.183-162.009-49.183
		c-81.204,0-131.571,24.545-162.017,48.978v145.876c0,0,5.193,4.184,10.612,5.897c13.467-10.665,28.98-20.732,47.169-27.315
		C127.391,256.577,163.132,249.919,200.345,249.646"/>
	<path fill="none" stroke="#000000" stroke-width="0.734" d="M200.345,249.646c39.719-0.04,78.812,8.131,103.917,18.84
		c18.736,7.208,34.562,16.876,47.05,27.396c4.384-1.061,9.207-4.681,11.042-5.978V143.919
		c-32.445-28.513-92.747-49.183-162.009-49.183c-81.204,0-131.571,24.545-162.017,48.978v145.876c0,0,5.193,4.184,10.612,5.897
		c13.467-10.665,28.98-20.732,47.169-27.315C127.391,256.577,163.132,249.919,200.345,249.646z"/>
	<path fill="none" stroke="#000000" stroke-width="0.581" d="M200.345,249.646c39.719-0.04,78.812,8.131,103.917,18.84
		c18.736,7.208,34.562,16.876,47.05,27.396c4.384-1.061,9.207-4.681,11.042-5.978V143.919
		c-32.445-28.513-92.747-49.183-162.009-49.183c-81.204,0-131.571,24.545-162.017,48.978v145.876c0,0,5.193,4.184,10.612,5.897
		c13.467-10.665,28.98-20.732,47.169-27.315C127.391,256.577,163.132,249.919,200.345,249.646z"/>
	<path fill="none" stroke="#000000" stroke-width="0.662" d="M361.099,290.797c-35.634-32.923-97.393-51.444-160.754-51.444
		c-62.732,0-127.372,19.152-160.232,50.121"/>
	<path fill="none" stroke="#000000" stroke-width="0.662" d="M38.334,156.658c33.582-27.104,81.849-51.289,161.589-51.289
		c68.832,0,129.592,20.726,162.528,51.792"/>
	<path fill="none" stroke="#000000" stroke-width="0.509" d="M361.099,290.797c-35.634-32.923-97.393-51.444-160.754-51.444
		c-62.732,0-127.372,19.152-160.232,50.121"/>
	<path fill="none" stroke="#000000" stroke-width="0.509" d="M38.334,156.658c33.582-27.104,81.849-51.289,161.589-51.289
		c68.832,0,129.592,20.726,162.528,51.792"/>
	<path fill="#FFFFFF" d="M56.261,263.754v-10.191l4.51-2.726V163.84l-4.51,2.912v-10.427c9.488-6.531,29.281-16.436,31.844-17.235
		v33.055l-8.669-2.702v-15.691l-5.049,2.389l0.154,38.161l4.639-2.313v-5.171l5.239-2.133v21.485l-5.239,2.312v-5.352l-4.69,2.01
		l0.128,38.562l4.818-2.134V223.42l8.669-9.084v33.947C79.955,251.041,67.15,257.089,56.261,263.754"/>
	<path fill="#FFFFFF" d="M92.243,246.698l-0.005-10.002l4.496-1.641l7.741-91.9l-4.239,1.574v-10.474
		c8.581-3.317,22.929-7.459,28.481-8.639v10.12l-3.562,1.087l9.125,87.825l3.829-0.554v10.233
		c-3.085,0.604-12.631,2.256-20.901,4.501v-9.977l3.845-1.097l-2.082-26.739l-8.053,3.004l-1.041,26.965l4.439-1.373v10.057
		C109.083,241.085,98.308,244.264,92.243,246.698 M116.691,189.365l-2.86-43.888l-2.052,45.631L116.691,189.365z"/>
	<path fill="#FFFFFF" d="M158.118,148.057c0,0-0.119-10.346-0.149-13.16c-0.052-4.102-0.01-4.102-2.749-3.855
		c-3.229,0.297-2.27,0.825-2.234,3.845c0.031,3.219,0.076,6.039,0.076,7.607c0,28.087,21.061,26.765,21.061,54.034l0.163,15.235
		c0.201,17.531-0.969,17.368-14.773,19.43c-12.371,1.844-17.026,3.617-17.677-14.191l-0.185-16.425l13.088,5.567
		c0,0,0.061,6.812,0.123,9.628c0.087,3.506,0.497,3.425,3.363,2.978c2.384-0.373,1.651,0.037,1.609-3.547
		c-0.051-4.722-0.143-12.509-0.164-14.456c-0.281-24.335-21.243-27.729-21.49-49.158l-0.144-12.739
		c-0.219-18.501-0.795-16.277,16.835-18.911c9.853-1.466,15.84-2.091,16.118,13.662v19.844L158.118,148.057z"/>
	<path fill="#FFFFFF" d="M222.412,229.223v-10.622l5.112,0.344v-89.061l-5.112-0.605v-10.284
		c10.966,0.605,22.219,2.061,31.329,3.661v34.886l-8.413-8.014V131.76l-4.625-0.605v39.976l4.625,0.708v-5.208l5.348,0.764v22.602
		l-5.348-1.077v-5.798l-4.625-0.702v38.007l4.625,0.595v-17.559l8.413-3.931v33.389
		C245.984,231.826,235.055,229.627,222.412,229.223"/>
	<path fill="#FFFFFF" d="M278.845,127.858c13.437,3.455,17.485,10.145,17.539,24.826l0.02,13.883
		c0.03,7.146-3.711,14.693-11.653,11.986l0.006,0.266c8.987,2.62,10.422,7.803,10.469,18.711l0.062,28.108
		c0.03,9.295,1.429,13.802,2.244,17.774l-13.369-4.003c-0.985-3.77-1.194-6.014-1.221-12.606l-0.082-30.508
		c-0.014-5.921-1.251-10.899-6.301-11.99v43.452l3.076,0.82l-0.236,9.694c-2.255-0.538-14.614-3.723-20.849-4.517v-9.729
		l5.056,0.701v-89.953l-5.056-1.051v-10.427C258.549,123.296,275.02,126.869,278.845,127.858 M276.415,173.252l1.763,0.375
		c2.323,0.508,4.712-1.405,4.691-5.987l-0.041-19.537c-0.016-4.583-2.42-5.639-4.742-6.142l-1.671-0.374V173.252z"/>
	<path fill="#FFFFFF" d="M301.591,244.828V234.19l3.481,1.225l0.015-88.988l-3.496-1.461v-9.905
		c6.1,2.399,21.224,8.955,23.521,10.489l6.992,80.444l0.061-66.039l-2.209-1.354l-0.071-10.381
		c3.645,2.169,7.443,4.045,16.712,10.699l0.118,10.453l-3.691-2.615l0.185,97.09c-0.791-0.462-13.643-7.783-16.507-9.034
		l-9.603-92.885v88.753C317.098,250.682,303.692,245.32,301.591,244.828"/>
	<path fill="#FFFFFF" d="M216.934,118.79v34.511l-9.27-3.558v-20.977h-4.613v89.005l4.859,0.071v10.694
		c-2.881-0.267-18.193,0.107-22.591,0.226v-10.92h4.844v-89.076h-4.511l0.02,20.972l-9.238,3.722l-0.077-34.562
		C179.356,118.256,213.76,117.795,216.934,118.79"/>
	<polygon points="53.723,157.797 51.442,159.134 51.442,169.561 53.723,168.219 	"/>
	<polygon fill="none" stroke="#003DA6" stroke-width="0.153" points="53.723,157.797 51.442,159.134 51.442,169.561 53.723,168.219 
			"/>
	<polygon points="55.948,169.803 58.225,168.567 58.225,249.124 55.948,250.431 	"/>
	<polygon fill="none" stroke="#003DA6" stroke-width="0.153" points="55.948,169.803 58.225,168.567 58.225,249.124 55.948,250.431 
			"/>
	<polygon points="53.723,255.034 53.743,265.19 51.473,266.573 51.473,256.372 	"/>
	<polyline fill="none" stroke="#003DA6" stroke-width="0.153" points="53.723,255.034 53.743,265.19 51.473,266.573 51.473,256.372 
		53.723,255.034 	"/>
	<polygon points="83.292,172.915 76.88,170.904 76.88,173.575 83.292,175.58 	"/>
	<polygon fill="none" stroke="#003DA6" stroke-width="0.153" points="83.292,172.915 76.88,170.904 76.88,173.575 83.292,175.58 	
		"/>
	<polygon points="77.085,222.046 85.164,213.695 85.164,209.947 77.085,218.438 	"/>
	<polygon fill="none" stroke="#003DA6" stroke-width="0.153" points="77.085,222.046 85.164,213.695 85.164,209.947 77.085,218.438 
			"/>
	<polygon points="97.697,135.193 97.673,145.426 95.421,146.319 95.421,135.85 	"/>
	<polygon fill="none" stroke="#003DA6" stroke-width="0.153" points="97.697,135.193 97.673,145.426 95.421,146.319 95.421,135.85 	
		"/>
	<polygon points="94.196,233.446 101.732,147.098 99.466,147.974 91.92,234.143 	"/>
	<polygon fill="none" stroke="#003DA6" stroke-width="0.153" points="94.196,233.446 101.732,147.098 99.466,147.974 91.92,234.143 
			"/>
	<polygon points="116.695,204.769 118.265,226.127 115.994,226.609 114.384,205.467 	"/>
	<polygon fill="none" stroke="#003DA6" stroke-width="0.153" points="116.695,204.769 118.265,226.127 115.994,226.609 
		114.384,205.467 	"/>
	<path d="M139.114,199.147l0.226,20.126c0.076,0.799,0.594,2.229,0.667,2.567l-2.226,0.349c0,0-0.441-0.729-0.595-1.384
		c-0.42-1.738-0.267-22.594-0.267-22.594L139.114,199.147z"/>
	<path fill="none" stroke="#003DA6" stroke-width="0.153" d="M139.114,199.147l0.226,20.126c0.076,0.799,0.594,2.229,0.667,2.567
		l-2.226,0.349c0,0-0.441-0.729-0.595-1.384c-0.42-1.738-0.267-22.594-0.267-22.594L139.114,199.147z"/>
	<path d="M154.539,195.523c-1.349-8.695-5.203-12.521-14.242-25.095c-1.45-2.009-5.88-9.089-6.048-12.626
		c-0.708-3.214-1.317-21.598-0.943-23.869c0.245-1.476-0.523-7.197,4.131-10.293c-1.717,1.871-1.583,4.87-1.794,9.955
		c-0.209,5.08,0.169,20.367,0.74,23.668c0.716,4.143,3.476,8.669,5.582,12.237c2.312,3.942,14.492,16.066,14.928,26.929
		c0.082,0.988,0.189,4.2,0.148,6.069l-2.158-0.865C155.015,201.101,154.822,196.966,154.539,195.523"/>
	<path fill="none" stroke="#003DA6" stroke-width="0.153" d="M154.539,195.523c-1.349-8.695-5.203-12.521-14.242-25.095
		c-1.45-2.009-5.88-9.089-6.048-12.626c-0.708-3.214-1.317-21.598-0.943-23.869c0.245-1.476-0.523-7.197,4.131-10.293
		c-1.717,1.871-1.583,4.87-1.794,9.955c-0.209,5.08,0.169,20.367,0.74,23.668c0.716,4.143,3.476,8.669,5.582,12.237
		c2.312,3.942,14.492,16.066,14.928,26.929c0.082,0.988,0.189,4.2,0.148,6.069l-2.158-0.865
		C155.015,201.101,154.822,196.966,154.539,195.523z"/>
	<path d="M157.944,153.614c-1.411-0.949-1.272-3.574-1.272-3.574l0.114,0.052l10.365,4.249l0.025,2.887L157.944,153.614z"/>
	<path fill="none" stroke="#003DA6" stroke-width="0.153" d="M157.944,153.614c-1.411-0.949-1.272-3.574-1.272-3.574l0.114,0.052
		l10.365,4.249l0.025,2.887L157.944,153.614z"/>
	<polygon points="185.319,155.187 187.63,154.29 187.63,215.229 185.319,215.229 	"/>
	<polygon fill="none" stroke="#003DA6" stroke-width="0.153" points="185.319,155.187 187.63,154.29 187.63,215.229 
		185.319,215.229 	"/>
	<polygon points="182.775,217.98 182.775,228.956 180.505,228.956 180.505,217.955 	"/>
	<polygon fill="none" stroke="#003DA6" stroke-width="0.153" points="182.775,217.98 182.775,228.956 180.505,228.956 
		180.505,217.955 	"/>
	<polygon points="205.435,154.587 214.739,157.935 214.739,155.192 205.435,151.844 	"/>
	<polygon fill="none" stroke="#003DA6" stroke-width="0.153" points="205.435,154.587 214.739,157.935 214.739,155.192 
		205.435,151.844 	"/>
	<polygon points="222.557,131.841 225.032,132.118 225.032,216.227 222.489,216.129 	"/>
	<polygon fill="none" stroke="#003DA6" stroke-width="0.153" points="222.557,131.841 225.032,132.118 225.032,216.227 
		222.489,216.129 	"/>
	<polygon points="219.886,218.376 219.886,229.068 217.41,228.936 217.41,218.298 	"/>
	<polygon fill="none" stroke="#003DA6" stroke-width="0.153" points="219.886,218.376 219.886,229.068 217.41,228.936 
		217.41,218.298 	"/>
	<polygon points="248.702,156.059 248.702,159.329 242.646,153.988 242.646,150.378 	"/>
	<polygon fill="none" stroke="#003DA6" stroke-width="0.153" points="248.702,156.059 248.702,159.329 242.646,153.988 
		242.646,150.378 	"/>
	<polygon points="243.088,199.182 249.635,196.106 249.635,198.783 243.088,201.858 	"/>
	<polygon fill="none" stroke="#003DA6" stroke-width="0.153" points="243.088,199.182 249.635,196.106 249.635,198.783 
		243.088,201.858 	"/>
	<polygon points="258.671,137.127 261.065,137.645 261.065,221.979 258.671,221.585 	"/>
	<polygon fill="none" stroke="#003DA6" stroke-width="0.153" points="258.671,137.127 261.065,137.645 261.065,221.979 
		258.671,221.585 	"/>
	<path d="M295.449,132.754l-0.016,3.374c0.472,0.424,2.081,5.443,2.287,7.258v-9.771L295.449,132.754z"/>
	<path fill="none" stroke="#003DA6" stroke-width="0.153" d="M295.449,132.754l-0.016,3.374c0.472,0.424,2.081,5.443,2.287,7.258
		v-9.771L295.449,132.754z"/>
	<polygon points="300.257,147.508 302.549,148.374 302.549,231.91 300.243,231.14 	"/>
	<polygon fill="none" stroke="#003DA6" stroke-width="0.153" points="300.257,147.508 302.549,148.374 302.549,231.91 
		300.243,231.14 	"/>
	<polygon points="319.502,208.302 319.37,226.613 321.893,252.461 324.156,253.742 	"/>
	<polygon fill="none" stroke="#003DA6" stroke-width="0.153" points="319.502,208.302 319.37,226.613 321.893,252.461 
		324.156,253.742 	"/>
	<path d="M96.109,292.806l1.328-1.021c1.451-1.105,1.558-2.239,0.974-2.997c-0.908-1.195-1.82-1.092-3.097-0.118l-8.679,6.653
		c-1.282,0.98-1.609,1.837-0.702,3.016c0.82,1.064,1.712,0.953,2.824,0.102l2.066-1.589l2.246,2.942l-1.97,1.513
		c-2.415,1.851-5.475,1.937-7.726-1c-2.362-3.086-1.486-6.019,0.938-7.875l8.817-6.756c2.425-1.856,5.486-1.937,7.843,1.144
		c2.256,2.942,1.209,6.003-1.348,7.967l-1.267,0.958L96.109,292.806z"/>
	<path fill="none" stroke="#C4CED4" stroke-width="0.153" d="M96.109,292.806l1.328-1.021c1.451-1.105,1.558-2.239,0.974-2.997
		c-0.908-1.195-1.82-1.092-3.097-0.118l-8.679,6.653c-1.282,0.98-1.609,1.837-0.702,3.016c0.82,1.064,1.712,0.953,2.824,0.102
		l2.066-1.589l2.246,2.942l-1.97,1.513c-2.415,1.851-5.475,1.937-7.726-1c-2.362-3.086-1.486-6.019,0.938-7.875l8.817-6.756
		c2.425-1.856,5.486-1.937,7.843,1.144c2.256,2.942,1.209,6.003-1.348,7.967l-1.267,0.958L96.109,292.806z"/>
	<path d="M111.18,306.457c1.989-2.316,4.969-3.03,7.917-0.491c2.947,2.537,2.68,5.588,0.696,7.894l-7.254,8.444
		c-1.984,2.307-4.962,3.018-7.91,0.486c-2.947-2.533-2.696-5.588-0.708-7.896L111.18,306.457z M106.792,317.238
		c-1.051,1.226-1.194,2.128-0.062,3.102c1.134,0.974,2.01,0.697,3.056-0.528l7.135-8.295c1.056-1.226,1.201-2.126,0.062-3.101
		c-1.138-0.979-2-0.698-3.057,0.528L106.792,317.238z"/>
	<path fill="none" stroke="#C4CED4" stroke-width="0.153" d="M111.18,306.457c1.989-2.316,4.969-3.03,7.917-0.491
		c2.947,2.537,2.68,5.588,0.696,7.894l-7.254,8.444c-1.984,2.307-4.962,3.018-7.91,0.486c-2.947-2.533-2.696-5.588-0.708-7.896
		L111.18,306.457z M106.792,317.238c-1.051,1.226-1.194,2.128-0.062,3.102c1.134,0.974,2.01,0.697,3.056-0.528l7.135-8.295
		c1.056-1.226,1.201-2.126,0.062-3.101c-1.138-0.979-2-0.698-3.057,0.528L106.792,317.238z"/>
	<polygon points="126.058,336.587 136.438,317.664 139.452,319.319 137.468,332.316 137.519,332.346 143.462,321.519 
		146.399,323.128 136.018,342.05 133.187,340.497 135.525,326.409 135.475,326.378 128.984,338.189 	"/>
	<polygon fill="none" stroke="#C4CED4" stroke-width="0.153" points="126.058,336.587 136.438,317.664 139.452,319.319 
		137.468,332.316 137.519,332.346 143.462,321.519 146.399,323.128 136.018,342.05 133.187,340.497 135.525,326.409 
		135.475,326.378 128.984,338.189 	"/>
	<polygon points="154.017,349.59 160.373,328.973 170.257,332.023 169.298,335.104 162.962,333.151 161.326,338.457 
		166.063,339.924 165.115,343.003 160.373,341.541 157.564,350.683 	"/>
	<polygon fill="none" stroke="#C4CED4" stroke-width="0.153" points="154.017,349.59 160.373,328.973 170.257,332.023 
		169.298,335.104 162.962,333.151 161.326,338.457 166.063,339.924 165.115,343.003 160.373,341.541 157.564,350.683 	"/>
	<polygon points="182.33,356.312 184.53,334.843 194.397,335.852 194.069,339.066 187.885,338.43 187.322,343.963 192.081,344.455 
		191.747,347.664 186.989,347.171 186.343,353.478 192.947,354.153 192.624,357.363 	"/>
	<polygon fill="none" stroke="#C4CED4" stroke-width="0.153" points="182.33,356.312 184.53,334.843 194.397,335.852 
		194.069,339.066 187.885,338.43 187.322,343.963 192.081,344.455 191.747,347.664 186.989,347.171 186.343,353.478 
		192.947,354.153 192.624,357.363 	"/>
	<path d="M215.154,357.061l-3.69,0.353l-2.108-21.479l5.174-0.506c4.142-0.406,6.434,1.143,6.879,5.726
		c0.333,3.455-0.861,4.981-2.066,5.669l4.081,9.433l-3.753,0.364l-3.485-8.648c-0.467,0.113-1.241,0.215-1.902,0.283
		L215.154,357.061z M213.99,345.218l1.312-0.127c1.99-0.196,2.66-1.017,2.408-3.574c-0.256-2.559-1.061-3.235-3.059-3.034
		l-1.308,0.128L213.99,345.218z"/>
	<path fill="none" stroke="#C4CED4" stroke-width="0.153" d="M215.154,357.061l-3.69,0.353l-2.108-21.479l5.174-0.506
		c4.142-0.406,6.434,1.143,6.879,5.726c0.333,3.455-0.861,4.981-2.066,5.669l4.081,9.433l-3.753,0.364l-3.485-8.648
		c-0.467,0.113-1.241,0.215-1.902,0.283L215.154,357.061z M213.99,345.218l1.312-0.127c1.99-0.196,2.66-1.017,2.408-3.574
		c-0.256-2.559-1.061-3.235-3.059-3.034l-1.308,0.128L213.99,345.218z"/>
	<polygon points="242.299,351.324 235.9,330.706 245.38,327.773 246.338,330.854 240.407,332.694 242.041,338.005 246.62,336.587 
		247.578,339.677 243,341.091 244.883,347.142 251.219,345.182 252.183,348.258 	"/>
	<polygon fill="none" stroke="#C4CED4" stroke-width="0.153" points="242.299,351.324 235.9,330.706 245.38,327.773 
		246.338,330.854 240.407,332.694 242.041,338.005 246.62,336.587 247.578,339.677 243,341.091 244.883,347.142 251.219,345.182 
		252.183,348.258 	"/>
	<polygon points="269.971,340.261 259.549,321.354 262.559,319.693 272.479,328.326 272.529,328.302 266.562,317.488 
		269.499,315.875 279.916,334.774 277.097,336.334 266.444,326.804 266.393,326.83 272.897,338.642 	"/>
	<polygon fill="none" stroke="#C4CED4" stroke-width="0.153" points="269.971,340.261 259.549,321.354 262.559,319.693 
		272.479,328.326 272.529,328.302 266.562,317.488 269.499,315.875 279.916,334.774 277.097,336.334 266.444,326.804 
		266.393,326.83 272.897,338.642 	"/>
	<path d="M291.626,307.821l-1.098-1.271c-1.19-1.379-2.338-1.42-3.056-0.795c-1.132,0.979-0.989,1.882,0.067,3.097l7.15,8.285
		c1.047,1.213,1.913,1.496,3.045,0.517c1.026-0.872,0.856-1.752-0.065-2.819l-1.697-1.968l2.803-2.421l1.626,1.877
		c1.989,2.306,2.255,5.362-0.555,7.771c-2.931,2.543-5.915,1.84-7.904-0.472l-7.264-8.412c-1.988-2.303-2.266-5.358,0.682-7.895
		c2.81-2.426,5.922-1.554,8.033,0.886l1.037,1.199L291.626,307.821z"/>
	<path fill="none" stroke="#C4CED4" stroke-width="0.153" d="M291.626,307.821l-1.098-1.271c-1.19-1.379-2.338-1.42-3.056-0.795
		c-1.132,0.979-0.989,1.882,0.067,3.097l7.15,8.285c1.047,1.213,1.913,1.496,3.045,0.517c1.026-0.872,0.856-1.752-0.065-2.819
		l-1.697-1.968l2.803-2.421l1.626,1.877c1.989,2.306,2.255,5.362-0.555,7.771c-2.931,2.543-5.915,1.84-7.904-0.472l-7.264-8.412
		c-1.988-2.303-2.266-5.358,0.682-7.895c2.81-2.426,5.922-1.554,8.033,0.886l1.037,1.199L291.626,307.821z"/>
	<polygon points="316.457,302.377 299.392,289.188 305.456,281.337 308.01,283.317 304.205,288.228 308.604,291.632 
		311.531,287.843 314.089,289.817 311.156,293.601 316.174,297.47 320.235,292.222 322.778,294.195 	"/>
	<polygon fill="none" stroke="#C4CED4" stroke-width="0.153" points="316.457,302.377 299.392,289.188 305.456,281.337 
		308.01,283.317 304.205,288.228 308.604,291.632 311.531,287.843 314.089,289.817 311.156,293.601 316.174,297.47 320.235,292.222 
		322.778,294.195 	"/>
	<path fill="#FFFFFF" d="M95.272,291.13l1.328-1.025c1.446-1.103,1.554-2.234,0.975-2.995c-0.908-1.188-1.821-1.098-3.102-0.117
		l-8.679,6.65c-1.277,0.983-1.605,1.839-0.697,3.018c0.815,1.067,1.707,0.949,2.824,0.098l2.056-1.579l2.256,2.938l-1.97,1.512
		c-2.414,1.852-5.479,1.939-7.729-1.004c-2.359-3.081-1.487-6.018,0.933-7.869l8.827-6.751c2.415-1.861,5.475-1.938,7.837,1.139
		c2.256,2.937,1.206,6.002-1.353,7.965l-1.256,0.964L95.272,291.13z"/>
	<path fill="#FFFFFF" d="M110.339,304.777c1.994-2.313,4.973-3.025,7.915-0.488c2.948,2.536,2.681,5.588,0.697,7.9l-7.248,8.437
		c-1.99,2.308-4.968,3.025-7.916,0.482c-2.948-2.532-2.691-5.588-0.702-7.895L110.339,304.777z M105.957,315.562
		c-1.051,1.22-1.205,2.123-0.066,3.102c1.133,0.979,2.009,0.697,3.06-0.528l7.135-8.293c1.057-1.227,1.195-2.128,0.057-3.107
		c-1.133-0.97-2-0.697-3.055,0.532L105.957,315.562z"/>
	<polygon fill="#FFFFFF" points="125.221,334.909 135.597,315.986 138.617,317.644 136.633,330.639 136.683,330.663 
		142.621,319.843 145.564,321.448 135.171,340.375 132.342,338.815 134.69,324.728 134.632,324.698 128.143,336.519 	"/>
	<polygon fill="#FFFFFF" points="153.182,347.914 159.533,327.295 169.416,330.347 168.463,333.428 162.126,331.475 
		160.491,336.785 165.228,338.246 164.28,341.328 159.537,339.871 156.722,349.008 	"/>
	<polygon fill="#FFFFFF" points="181.493,354.636 183.694,333.165 193.562,334.176 193.233,337.391 187.05,336.755 186.477,342.281 
		191.239,342.773 190.911,345.987 186.154,345.495 185.507,351.8 192.111,352.477 191.788,355.692 	"/>
	<path fill="#FFFFFF" d="M214.313,355.383l-3.691,0.36l-2.106-21.484l5.177-0.508c4.143-0.405,6.43,1.142,6.881,5.731
		c0.327,3.449-0.862,4.978-2.071,5.665l4.08,9.427l-3.747,0.368l-3.496-8.642c-0.461,0.107-1.235,0.21-1.892,0.275L214.313,355.383z
		 M213.154,343.542l1.309-0.135c1.994-0.192,2.665-1.015,2.413-3.566c-0.257-2.563-1.064-3.234-3.06-3.035l-1.312,0.122
		L213.154,343.542z"/>
	<polygon fill="#FFFFFF" points="241.043,349.857 234.639,329.244 244.123,326.308 245.082,329.383 239.146,331.229 
		240.791,336.539 245.364,335.125 246.318,338.211 241.744,339.625 243.63,345.68 249.968,343.716 250.926,346.798 	"/>
	<polygon fill="#FFFFFF" points="268.296,339.42 257.868,320.519 260.887,318.863 270.796,327.49 270.842,327.461 264.881,316.649 
		267.828,315.033 278.239,333.936 275.415,335.493 264.767,325.964 264.711,325.994 271.223,337.8 	"/>
	<path fill="#FFFFFF" d="M289.732,306.98l-1.091-1.261c-1.195-1.384-2.333-1.431-3.062-0.811c-1.126,0.984-0.983,1.887,0.073,3.107
		l7.151,8.282c1.05,1.223,1.922,1.498,3.05,0.515c1.021-0.877,0.851-1.755-0.072-2.825l-1.691-1.964l2.799-2.419l1.63,1.877
		c1.99,2.307,2.25,5.355-0.559,7.78c-2.938,2.533-5.915,1.825-7.909-0.476l-7.265-8.413c-1.989-2.312-2.251-5.362,0.688-7.894
		c2.809-2.432,5.921-1.56,8.027,0.881l1.04,1.194L289.732,306.98z"/>
	<polygon fill="#FFFFFF" points="314.576,301.956 297.506,288.767 303.57,280.912 306.123,282.892 302.324,287.808 306.711,291.206 
		309.649,287.429 312.202,289.402 309.275,293.18 314.294,297.056 318.343,291.805 320.893,293.781 	"/>
	<path fill="#BB9753" d="M-244.321,270.75c17.143,0,31.042-13.912,31.042-31.072c0-17.159-13.899-31.07-31.042-31.07
		c-17.146,0-31.043,13.911-31.043,31.07C-275.364,256.838-261.467,270.75-244.321,270.75"/>
	<ellipse fill="none" stroke="#DD0031" stroke-width="1.049" cx="-244.321" cy="239.679" rx="31.042" ry="31.071"/>
	<ellipse fill="none" stroke="#231F20" stroke-width="0.683" cx="-244.32" cy="239.641" rx="30.534" ry="30.562"/>
	<ellipse fill="none" stroke="#231F20" stroke-width="0.524" cx="-244.32" cy="239.641" rx="30.534" ry="30.562"/>
	<path fill="#231F20" d="M-231.655,212.254c-0.696-1.233-6.751-3.916-12.467-3.916c-5.715,0-11.771,2.683-12.466,3.916v7.379h24.94
		L-231.655,212.254z"/>
	<path fill="none" stroke="#DD0031" stroke-width="0.803" d="M-231.655,212.254c-0.696-1.233-6.751-3.916-12.467-3.916
		c-5.715,0-11.771,2.683-12.466,3.916v7.379h24.94L-231.655,212.254z"/>
	<path fill="none" stroke="#DD0031" stroke-width="0.709" d="M-231.655,212.254c-0.696-1.233-6.751-3.916-12.467-3.916
		c-5.715,0-11.771,2.683-12.466,3.916v7.379h24.94L-231.655,212.254z"/>
	<path fill="#231F20" d="M-235.004,205.347c-3.191-1.509-6.104-1.954-9.233-1.986c-3.894-0.041-7.518,0.866-9.234,1.857v13.576
		h18.474L-235.004,205.347z"/>
	<path fill="none" stroke="#DD0031" stroke-width="0.805" d="M-235.004,205.347c-3.191-1.509-6.104-1.954-9.233-1.986
		c-3.894-0.041-7.518,0.866-9.234,1.857v13.576h18.474L-235.004,205.347z"/>
	<path fill="none" stroke="#DD0031" stroke-width="0.711" d="M-235.004,205.347c-3.191-1.509-6.104-1.954-9.233-1.986
		c-3.894-0.041-7.518,0.866-9.234,1.857v13.576h18.474L-235.004,205.347z"/>
	<path fill="#FFFFFF" d="M-247.359,205.503v0.165c-0.156,0.068-0.174,0.17-0.174,0.292v6.38c0,0.123,0.018,0.215,0.174,0.201v0.165
		l-1.182,0.156v-0.165c0.113-0.029,0.145-0.094,0.145-0.188c0-0.179-0.155-0.315-1.794-3.927v4.216c0,0.124,0.018,0.214,0.173,0.2
		v0.165l-1.18,0.313v-0.165c0.156-0.068,0.175-0.17,0.175-0.293v-6.34c0-0.124-0.019-0.215-0.175-0.201v-0.165
		c0.158-0.059,1.354-0.368,1.497-0.397v0.166c-0.143,0.051-0.173,0.142-0.173,0.224c0,0.151,1.073,2.43,1.508,3.369v-3.596
		c0-0.166-0.049-0.222-0.13-0.213V205.7C-248.378,205.664-247.508,205.512-247.359,205.503"/>
	<path fill="none" stroke="#FFFFFF" stroke-width="0.185" d="M-247.359,205.503v0.165c-0.156,0.068-0.174,0.17-0.174,0.292v6.38
		c0,0.123,0.018,0.215,0.174,0.201v0.165l-1.182,0.156v-0.165c0.113-0.029,0.145-0.094,0.145-0.188c0-0.179-0.155-0.315-1.794-3.927
		v4.216c0,0.124,0.018,0.214,0.173,0.2v0.165l-1.18,0.313v-0.165c0.156-0.068,0.175-0.17,0.175-0.293v-6.34
		c0-0.124-0.019-0.215-0.175-0.201v-0.165c0.158-0.059,1.354-0.368,1.497-0.397v0.166c-0.143,0.051-0.173,0.142-0.173,0.224
		c0,0.151,1.073,2.43,1.508,3.369v-3.596c0-0.166-0.049-0.222-0.13-0.213V205.7C-248.378,205.664-247.508,205.512-247.359,205.503z"
		/>
	<path fill="#FFFFFF" d="M-245.597,205.583c0-0.084-0.019-0.149-0.173-0.168v-0.111h2.364c0.67,0,1.161,0.763,1.161,1.684
		c0,0.56-0.248,1.685-0.597,1.796v0.02c0.417,0.167,0.721,0.893,0.721,1.582c0,0.744-0.372,2.159-1.254,2.159h-2.396v-0.111
		c0.154-0.019,0.173-0.085,0.173-0.168V205.583z M-244.666,208.318h0.845c0.534,0,0.671-0.838,0.671-1.209
		c0-0.373-0.137-0.819-0.671-0.819h-0.845V208.318z M-244.666,211.557h1.056c0.435,0,0.608-0.93,0.608-1.34
		c0-0.409-0.174-0.948-0.608-0.948h-1.056V211.557z"/>
	<path fill="none" stroke="#FFFFFF" stroke-width="0.185" d="M-245.597,205.583c0-0.084-0.019-0.149-0.173-0.168v-0.111h2.364
		c0.67,0,1.161,0.763,1.161,1.684c0,0.56-0.248,1.685-0.597,1.796v0.02c0.417,0.167,0.721,0.893,0.721,1.582
		c0,0.744-0.372,2.159-1.254,2.159h-2.396v-0.111c0.154-0.019,0.173-0.085,0.173-0.168V205.583z M-244.666,208.318h0.845
		c0.534,0,0.671-0.838,0.671-1.209c0-0.373-0.137-0.819-0.671-0.819h-0.845V208.318z M-244.666,211.557h1.056
		c0.435,0,0.608-0.93,0.608-1.34c0-0.409-0.174-0.948-0.608-0.948h-1.056V211.557z"/>
	<path fill="#FFFFFF" d="M-239.772,211.366c-0.161,1.003-0.198,1.127-0.198,1.213s0.024,0.149,0.112,0.171l-0.021,0.153
		l-1.104-0.184v-0.172c0.087-0.021,0.124-0.068,0.161-0.288c0.055-0.313,1.132-6.155,1.132-6.24c0-0.102-0.069-0.147-0.124-0.176
		v-0.17l1.62,0.414v0.172c-0.068-0.003-0.112,0.014-0.112,0.156c0,0.115,0.763,4.26,1.147,6.532
		c0.062,0.358,0.101,0.454,0.175,0.473v0.172l-1.224-0.314v-0.17c0.087,0.007,0.118-0.056,0.118-0.142
		c0-0.058-0.186-1.083-0.211-1.275L-239.772,211.366z M-239.617,210.209l1.154,0.298l-0.602-3.298L-239.617,210.209z"/>
	<path fill="none" stroke="#FFFFFF" stroke-width="0.185" d="M-239.772,211.366c-0.161,1.003-0.198,1.127-0.198,1.213
		s0.024,0.149,0.112,0.171l-0.021,0.153l-1.104-0.184v-0.172c0.087-0.021,0.124-0.068,0.161-0.288
		c0.055-0.313,1.132-6.155,1.132-6.24c0-0.102-0.069-0.147-0.124-0.176v-0.17l1.62,0.414v0.172
		c-0.068-0.003-0.112,0.014-0.112,0.156c0,0.115,0.763,4.26,1.147,6.532c0.062,0.358,0.101,0.454,0.175,0.473v0.172l-1.224-0.314
		v-0.17c0.087,0.007,0.118-0.056,0.118-0.142c0-0.058-0.186-1.083-0.211-1.275L-239.772,211.366z M-239.617,210.209l1.154,0.298
		l-0.602-3.298L-239.617,210.209z"/>
	<path fill="#CC6D19" d="M-259.642,256.968c9.922,8.743,24.798,7.487,33.226-2.808c8.428-10.292,7.217-25.724-2.705-34.468
		c-9.922-8.743-24.799-7.485-33.227,2.808C-270.774,232.792-269.563,248.225-259.642,256.968"/>
	<path fill="none" stroke="#231F20" stroke-width="1.103" d="M-259.642,256.968c9.922,8.743,24.798,7.487,33.226-2.808
		c8.428-10.292,7.217-25.724-2.705-34.468c-9.922-8.743-24.799-7.485-33.227,2.808
		C-270.774,232.792-269.563,248.225-259.642,256.968z"/>
	<path fill="none" stroke="#231F20" stroke-width="0.945" d="M-259.642,256.968c9.922,8.743,24.798,7.487,33.226-2.808
		c8.428-10.292,7.217-25.724-2.705-34.468c-9.922-8.743-24.799-7.485-33.227,2.808
		C-270.774,232.792-269.563,248.225-259.642,256.968z"/>
	<path fill="none" stroke="#231F20" stroke-width="1.103" d="M-247.191,213.975c-6.083,13.972-3.288,36.822,5.753,48.493"/>
	<path fill="none" stroke="#231F20" stroke-width="1.103" d="M-259.642,256.968c6.532,2.87,24.943,5.994,36.614-8.474"/>
	<path fill="none" stroke="#231F20" stroke-width="1.103" d="M-256.314,217.386c-1.645,2.631-11.754,19.604,2.836,36.535
		c1.927,2.235,4.698,3.887,5.013,5.507c0.287,1.479-0.451,2.383-1.191,2.794"/>
	<path fill="none" stroke="#231F20" stroke-width="1.103" d="M-238.644,214.632c1.809,2.138,7.891,21.371,1.809,37.48
		c-1.456,3.854-2.302,5.26-1.973,6.165c0.579,1.592,2.712,1.972,5.918,1.314"/>
	<path fill="none" stroke="#231F20" stroke-width="0.945" d="M-247.191,213.975c-6.083,13.972-3.288,36.822,5.753,48.493"/>
	<path fill="none" stroke="#231F20" stroke-width="0.945" d="M-259.642,256.968c6.532,2.87,24.943,5.994,36.614-8.474"/>
	<path fill="none" stroke="#231F20" stroke-width="0.945" d="M-256.314,217.386c-1.645,2.631-11.754,19.604,2.836,36.535
		c1.927,2.235,4.698,3.887,5.013,5.507c0.287,1.479-0.451,2.383-1.191,2.794"/>
	<path fill="none" stroke="#231F20" stroke-width="0.945" d="M-238.644,214.632c1.809,2.138,7.891,21.371,1.809,37.48
		c-1.456,3.854-2.302,5.26-1.973,6.165c0.579,1.592,2.712,1.972,5.918,1.314"/>
	<polygon fill="#231F20" points="-244.331,219.667 -211.437,231.229 -211.437,245.632 -244.224,258.804 -277.178,245.632 
		-277.178,231.16 	"/>
	<polygon fill="none" stroke="#231F20" stroke-width="0.158" points="-244.331,219.667 -211.437,231.229 -211.437,245.632 
		-244.224,258.804 -277.178,245.632 -277.178,231.16 	"/>
	<polygon fill="#DD0031" points="-244.396,216.093 -212.848,227.88 -212.848,244.993 -244.291,257.468 -275.736,244.993 
		-275.736,227.88 	"/>
	<polygon fill="none" stroke="#231F20" stroke-width="1.103" points="-244.396,216.093 -212.848,227.88 -212.848,244.993 
		-244.291,257.468 -275.736,244.993 -275.736,227.88 	"/>
	<polygon fill="none" stroke="#231F20" stroke-width="0.945" points="-244.396,216.093 -212.848,227.88 -212.848,244.993 
		-244.291,257.468 -275.736,244.993 -275.736,227.88 	"/>
	<polygon fill="#FFFFFF" points="-270.815,243.38 -271.943,231.344 -272.693,231.62 -272.856,230.045 -270.044,229.075 
		-269.634,240.743 -269.061,228.775 -267.55,228.17 -266.731,240.88 -266.139,227.715 -263.469,226.843 -263.47,228.499 
		-263.894,228.635 -265.648,245.427 -267.754,244.537 -268.241,237.381 -268.745,244.192 	"/>
	<path fill="#FFFFFF" d="M-249.562,251.906c0.7,0.292,1.191-0.001,1.191-0.906v-10.572c0-1.016-0.313-1.642-0.546-2.041l-3.276-5.88
		c-0.229-0.176-0.193-2.489-0.193-2.576v-4.241c0-0.238-0.112-0.697,0.327-0.87l0.844-0.275c0.532-0.173,0.542,0.256,0.54,0.676
		v5.763l1.937,0.872v-7.942c0-2.065-0.34-2.144-1.432-1.809c-0.325,0.102-3.274,1.114-3.274,1.114
		c-1.051,0.321-0.876,0.874-0.876,2.399v5.381c0,1.912,0.447,2.337,0.782,2.915l3.052,5.608c0.055,0.089,0.181,0.308,0.181,1.206
		v7.929c0,1.018,0.081,1.238-0.381,1.044l-1.157-0.492c-0.299-0.116-0.265-0.23-0.265-0.879v-5.861l-1.935-1.465v7.99
		c0,0.26-0.175,0.973,0.753,1.434L-249.562,251.906z"/>
	<path fill="#FFFFFF" d="M-232.159,248.841v-1.544l0.785-0.339v-20.396l-0.933-0.334v-1.732l3.507,1.245
		c2.281,0.84,3.016,1.172,3.014,3.306v5.886c-0.002,1.038-0.588,1.606-1.992,1.556v0.038c1.872,0.055,1.767,0.995,1.767,2.886
		l-0.004,4.787c-0.001,1.353,0.223,1.551,0.358,2.045l-2.134,0.846c-0.171-0.325-0.325-0.501-0.324-1.459l0.003-6.596
		c0.001-0.861-0.132-1.435-1.074-1.435l-0.004,8.525l0.465-0.193v1.527L-232.159,248.841z M-228.984,235.587l0.292,0.082
		c0.396,0.108,0.804-0.131,0.804-0.796l0.002-6.626c0.001-0.664-0.407-0.772-0.802-0.904l-0.293-0.106L-228.984,235.587z"/>
	<polygon fill="#FFFFFF" points="-220.217,228.556 -217.941,239.341 -218.544,230.852 -219.302,230.62 -219.302,228.913 
		-216.111,229.993 -216.111,231.709 -216.634,231.54 -216.634,242.793 -218.623,243.646 -221.06,234.42 -221.06,244.541 
		-223.983,245.773 -223.983,244.219 -223.159,243.87 -223.159,229.247 -223.983,228.959 -223.983,227.272 	"/>
	<polygon fill="#FFFFFF" points="-263.286,246.346 -263.286,244.791 -262.584,245.118 -262.568,226.541 -256.081,224.245 
		-256.081,232.088 -257.984,231.264 -257.984,226.587 -260.342,227.42 -260.342,235.95 -258.665,235.95 -258.665,234.545 
		-257.271,234.545 -257.271,239.173 -258.665,239.173 -258.665,237.766 -260.342,237.766 -260.342,245.958 -257.984,246.9 
		-257.984,241.792 -256.081,240.996 -256.081,249.209 	"/>
	<polygon fill="#FFFFFF" points="-237.509,237.768 -235.964,237.768 -235.964,239.172 -234.678,239.172 -234.678,234.545 
		-235.964,234.545 -235.964,235.95 -237.509,235.949 -237.509,224.24 -235.334,224.964 -235.334,232.054 -233.58,231.208 
		-233.58,223.889 -239.564,221.793 -239.578,250.181 -240.225,250.511 -240.225,252.014 -233.58,249.398 -233.58,242.377 
		-235.334,241.497 -235.334,248.521 -237.509,249.438 -237.509,237.767 	"/>
	<polygon fill="#FFFFFF" points="-244.254,253.466 -245.913,252.827 -245.913,251.103 -245.418,251.329 -245.418,222.253 
		-248.281,223.197 -248.297,221.521 -244.396,220.117 -240.164,221.543 -240.164,223.22 -243.197,222.253 -243.197,251.329 
		-242.708,251.111 -242.708,252.839 	"/>
	<polygon fill="#DD0031" points="-240.829,223.434 -242.741,222.818 -242.741,223.226 -240.829,223.829 	"/>
	<polygon fill="#231F20" points="-245.876,222.852 -245.876,250.678 -246.329,250.475 -246.329,222.979 	"/>
	<polygon fill="none" stroke="#DD0031" stroke-width="0.158" points="-245.876,222.852 -245.876,250.678 -246.329,250.475 
		-246.329,222.979 	"/>
	<polygon fill="#231F20" points="-246.47,250.886 -246.47,252.672 -246.96,252.48 -246.96,250.664 	"/>
	<polygon fill="none" stroke="#DD0031" stroke-width="0.158" points="-246.47,250.886 -246.47,252.672 -246.96,252.48 
		-246.96,250.664 	"/>
	<polygon fill="#231F20" points="-273.308,230.154 -273.152,231.638 -273.595,231.794 -273.758,230.285 	"/>
	<polygon fill="none" stroke="#DD0031" stroke-width="0.158" points="-273.308,230.154 -273.152,231.638 -273.595,231.794 
		-273.758,230.285 	"/>
	<polygon fill="#231F20" points="-272.77,232.14 -272.338,231.979 -271.266,243.202 -271.718,243.051 	"/>
	<polygon fill="none" stroke="#DD0031" stroke-width="0.158" points="-272.77,232.14 -272.338,231.979 -271.266,243.202 
		-271.718,243.051 	"/>
	<polygon fill="#231F20" points="-266.59,227.873 -267.04,228.054 -267.074,228.828 -266.785,232.172 	"/>
	<polygon fill="none" stroke="#DD0031" stroke-width="0.158" points="-266.59,227.873 -267.04,228.054 -267.074,228.828 
		-266.785,232.172 	"/>
	<polygon fill="#231F20" points="-263.482,228.953 -263.035,228.8 -263.035,244.456 -263.485,244.271 	"/>
	<polygon fill="none" stroke="#DD0031" stroke-width="0.158" points="-263.482,228.953 -263.035,228.8 -263.035,244.456 
		-263.485,244.271 	"/>
	<polygon fill="#231F20" points="-263.73,244.649 -264.188,244.447 -264.188,245.943 -263.737,246.153 	"/>
	<polygon fill="none" stroke="#DD0031" stroke-width="0.158" points="-263.73,244.649 -264.188,244.447 -264.188,245.943 
		-263.737,246.153 	"/>
	<polygon fill="#231F20" points="-258.886,230.851 -258.886,227.423 -258.436,227.26 -258.436,231.533 -256.99,232.166 
		-256.99,232.565 -258.886,231.809 	"/>
	<polygon fill="none" stroke="#DD0031" stroke-width="0.158" points="-258.886,230.851 -258.886,227.423 -258.436,227.26 
		-258.436,231.533 -256.99,232.166 -256.99,232.565 -258.886,231.809 	"/>
	<rect x="-259.567" y="234.546" fill="#231F20" width="0.456" height="0.993"/>
	<rect x="-259.567" y="234.546" fill="none" stroke="#DD0031" stroke-width="0.158" width="0.456" height="0.993"/>
	<rect x="-259.55" y="238.175" fill="#231F20" width="0.439" height="1.001"/>
	<rect x="-259.55" y="238.176" fill="none" stroke="#DD0031" stroke-width="0.158" width="0.439" height="1.001"/>
	<polygon fill="#231F20" points="-258.873,241.284 -258.873,246.107 -258.435,246.249 -258.435,241.551 -256.982,240.922 
		-256.982,240.528 	"/>
	<polygon fill="none" stroke="#DD0031" stroke-width="0.158" points="-258.873,241.284 -258.873,246.107 -258.435,246.249 
		-258.435,241.551 -256.982,240.922 -256.982,240.528 	"/>
	<path fill="#231F20" d="M-251.668,225.445v6.074l2.142,0.891v-0.452l-1.646-0.738v-6.014c0-0.087,0.034-0.318-0.27-0.256
		c-0.314,0.067-0.389,0.099-0.389,0.099C-251.779,225.049-251.668,225.148-251.668,225.445"/>
	<path fill="none" stroke="#DD0031" stroke-width="0.158" d="M-251.668,225.445v6.074l2.142,0.891v-0.452l-1.646-0.738v-6.014
		c0-0.087,0.034-0.318-0.27-0.256c-0.314,0.067-0.389,0.099-0.389,0.099C-251.779,225.049-251.668,225.148-251.668,225.445z"/>
	<path fill="#231F20" d="M-254.96,240.459l-0.027,8.317c-0.023,0.686,0.064,1.064,0.93,1.444c-0.127-0.107-0.627-0.585-0.477-1.41
		l0.024-8.005L-254.96,240.459z"/>
	<path fill="none" stroke="#DD0031" stroke-width="0.158" d="M-254.96,240.459l-0.027,8.317c-0.023,0.686,0.064,1.064,0.93,1.444
		c-0.127-0.107-0.627-0.585-0.477-1.41l0.024-8.005L-254.96,240.459z"/>
	<path fill="#231F20" d="M-251.217,248.822c0.024-0.109-0.013-7.984-0.013-8.352c0-0.737-0.2-0.868-0.338-1.129
		c-0.138-0.281-2.454-4.608-2.905-5.327c-0.495-0.787-0.796-1.373-0.796-2.341v-6.896c-0.025-1.085,0.927-1.205,0.997-1.224
		c-0.589,0.293-0.509,1.137-0.534,1.234v6.896c0.014,0.933,0.426,1.661,0.775,2.161l2.92,5.375c0.146,0.252,0.344,0.601,0.344,1.021
		v8.775c0,0.097,0.089,0.336-0.249,0.24c-0.397-0.111-0.264-0.11-0.264-0.11S-251.212,249.199-251.217,248.822"/>
	<path fill="none" stroke="#DD0031" stroke-width="0.158" d="M-251.217,248.822c0.024-0.109-0.013-7.984-0.013-8.352
		c0-0.737-0.2-0.868-0.338-1.129c-0.138-0.281-2.454-4.608-2.905-5.327c-0.495-0.787-0.796-1.373-0.796-2.341v-6.896
		c-0.025-1.085,0.927-1.205,0.997-1.224c-0.589,0.293-0.509,1.137-0.534,1.234v6.896c0.014,0.933,0.426,1.661,0.775,2.161
		l2.92,5.375c0.146,0.252,0.344,0.601,0.344,1.021v8.775c0,0.097,0.089,0.336-0.249,0.24c-0.397-0.111-0.264-0.11-0.264-0.11
		S-251.212,249.199-251.217,248.822z"/>
	<polygon fill="#231F20" points="-240.684,252.188 -241.135,252.343 -241.135,250.872 -240.684,250.67 	"/>
	<polygon fill="none" stroke="#DD0031" stroke-width="0.158" points="-240.684,252.188 -241.135,252.343 -241.135,250.872 
		-240.684,250.67 	"/>
	<polygon fill="#231F20" points="-235.818,241.498 -235.821,248.332 -236.272,248.514 -236.272,241.498 	"/>
	<polygon fill="none" stroke="#DD0031" stroke-width="0.158" points="-235.818,241.498 -235.821,248.332 -236.272,248.514 
		-236.272,241.498 	"/>
	<polygon fill="#231F20" points="-236.268,232.109 -236.26,225.07 -235.809,225.221 -235.809,232.109 	"/>
	<polygon fill="none" stroke="#DD0031" stroke-width="0.158" points="-236.268,232.109 -236.26,225.07 -235.809,225.221 
		-235.809,232.109 	"/>
	<rect x="-236.95" y="234.5" fill="#231F20" width="0.45" height="1.057"/>
	<rect x="-236.95" y="234.5" fill="none" stroke="#DD0031" stroke-width="0.158" width="0.45" height="1.057"/>
	<rect x="-236.95" y="238.162" fill="#231F20" width="0.45" height="1.014"/>
	<rect x="-236.95" y="238.162" fill="none" stroke="#DD0031" stroke-width="0.158" width="0.45" height="1.014"/>
	<polygon fill="#231F20" points="-232.262,226.73 -231.823,226.887 -231.823,246.745 -232.272,246.905 	"/>
	<polygon fill="none" stroke="#DD0031" stroke-width="0.158" points="-232.262,226.73 -231.823,226.887 -231.823,246.745 
		-232.272,246.905 	"/>
	<polygon fill="#231F20" points="-224.435,227.068 -224.435,228.788 -224.885,228.664 -224.885,226.912 	"/>
	<polygon fill="none" stroke="#DD0031" stroke-width="0.158" points="-224.435,227.068 -224.435,228.788 -224.885,228.664 
		-224.885,226.912 	"/>
	<polygon fill="#231F20" points="-223.609,243.635 -224.035,243.826 -224.061,229.381 -223.609,229.51 	"/>
	<polygon fill="none" stroke="#DD0031" stroke-width="0.158" points="-223.609,243.635 -224.035,243.826 -224.061,229.381 
		-223.609,229.51 	"/>
	<polygon fill="#231F20" points="-224.435,244.375 -224.435,245.964 -224.885,246.147 -224.885,244.53 	"/>
	<polygon fill="none" stroke="#DD0031" stroke-width="0.158" points="-224.435,244.375 -224.435,245.964 -224.885,246.147 
		-224.885,244.53 	"/>
	<polygon fill="#231F20" points="-220.542,238.09 -220.542,239.793 -219.497,244.01 -219.065,243.816 	"/>
	<polygon fill="none" stroke="#DD0031" stroke-width="0.158" points="-220.542,238.09 -220.542,239.793 -219.497,244.01 
		-219.065,243.816 	"/>
	<polygon fill="#231F20" points="-232.612,247.416 -232.612,249.005 -233.063,249.188 -233.063,247.572 	"/>
	<polygon fill="none" stroke="#DD0031" stroke-width="0.158" points="-232.612,247.416 -232.612,249.005 -233.063,249.188 
		-233.063,247.572 	"/>
	<polygon fill="#231F20" points="-240.442,223.572 -240.004,223.728 -240.004,249.957 -240.451,250.117 	"/>
	<polygon fill="none" stroke="#DD0031" stroke-width="0.158" points="-240.442,223.572 -240.004,223.728 -240.004,249.957 
		-240.451,250.117 	"/>
	<path fill="#231F20" d="M-266.755,253.398l0.285-0.16c0.311-0.176,0.362-0.392,0.271-0.556c-0.146-0.255-0.323-0.262-0.598-0.107
		l-1.865,1.052c-0.275,0.154-0.362,0.311-0.218,0.565c0.128,0.229,0.304,0.23,0.545,0.096l0.442-0.25l0.356,0.632l-0.425,0.238
		c-0.519,0.293-1.115,0.227-1.47-0.407c-0.374-0.662-0.123-1.206,0.397-1.499l1.896-1.067c0.52-0.291,1.115-0.225,1.489,0.438
		c0.356,0.631,0.068,1.196-0.481,1.505l-0.271,0.152L-266.755,253.398z"/>
	<path fill="none" stroke="#BB9753" stroke-width="0.158" d="M-266.755,253.398l0.285-0.16c0.311-0.176,0.362-0.392,0.271-0.556
		c-0.146-0.255-0.323-0.262-0.598-0.107l-1.865,1.052c-0.275,0.154-0.362,0.311-0.218,0.565c0.128,0.229,0.304,0.23,0.545,0.096
		l0.442-0.25l0.356,0.632l-0.425,0.238c-0.519,0.293-1.115,0.227-1.47-0.407c-0.374-0.662-0.123-1.206,0.397-1.499l1.896-1.067
		c0.52-0.291,1.115-0.225,1.489,0.438c0.356,0.631,0.068,1.196-0.481,1.505l-0.271,0.152L-266.755,253.398z"/>
	<path fill="#231F20" d="M-263.715,257.06c0.438-0.407,1.032-0.481,1.55,0.074c0.52,0.558,0.402,1.145-0.033,1.552l-1.592,1.483
		c-0.437,0.407-1.031,0.481-1.55-0.075c-0.518-0.556-0.402-1.144,0.033-1.551L-263.715,257.06z M-264.799,259.062
		c-0.229,0.216-0.277,0.388-0.079,0.602c0.2,0.214,0.375,0.178,0.605-0.037l1.566-1.46c0.23-0.215,0.279-0.388,0.079-0.601
		c-0.199-0.214-0.375-0.179-0.605,0.037L-264.799,259.062z"/>
	<path fill="none" stroke="#BB9753" stroke-width="0.158" d="M-263.715,257.06c0.438-0.407,1.032-0.481,1.55,0.074
		c0.52,0.558,0.402,1.145-0.033,1.552l-1.592,1.483c-0.437,0.407-1.031,0.481-1.55-0.075c-0.518-0.556-0.402-1.144,0.033-1.551
		L-263.715,257.06z M-264.799,259.062c-0.229,0.216-0.277,0.388-0.079,0.602c0.2,0.214,0.375,0.178,0.605-0.037l1.566-1.46
		c0.23-0.215,0.279-0.388,0.079-0.601c-0.199-0.214-0.375-0.179-0.605,0.037L-264.799,259.062z"/>
	<polygon fill="#231F20" points="-260.945,263.906 -258.62,260.382 -258.059,260.752 -258.652,263.254 -258.643,263.262 
		-257.313,261.245 -256.767,261.606 -259.091,265.13 -259.617,264.782 -258.938,262.072 -258.946,262.066 -260.398,264.268 	"/>
	<polygon fill="none" stroke="#BB9753" stroke-width="0.158" points="-260.945,263.906 -258.62,260.382 -258.059,260.752 
		-258.652,263.254 -258.643,263.262 -257.313,261.245 -256.767,261.606 -259.091,265.13 -259.617,264.782 -258.938,262.072 
		-258.946,262.066 -260.398,264.268 	"/>
	<polygon fill="#231F20" points="-254.89,267.229 -253.441,263.264 -251.541,263.956 -251.757,264.551 -252.977,264.104 
		-253.35,265.126 -252.439,265.459 -252.655,266.053 -253.567,265.721 -254.209,267.478 	"/>
	<polygon fill="none" stroke="#BB9753" stroke-width="0.158" points="-254.89,267.229 -253.441,263.264 -251.541,263.956 
		-251.757,264.551 -252.977,264.104 -253.35,265.126 -252.439,265.459 -252.655,266.053 -253.567,265.721 -254.209,267.478 	"/>
	<polygon fill="#231F20" points="-248.556,268.812 -248.038,264.62 -246.111,264.859 -246.189,265.486 -247.396,265.336 
		-247.529,266.417 -246.601,266.53 -246.678,267.158 -247.606,267.043 -247.759,268.273 -246.47,268.434 -246.548,269.06 	"/>
	<polygon fill="none" stroke="#BB9753" stroke-width="0.158" points="-248.556,268.812 -248.038,264.62 -246.111,264.859 
		-246.189,265.486 -247.396,265.336 -247.529,266.417 -246.601,266.53 -246.678,267.158 -247.606,267.043 -247.759,268.273 
		-246.47,268.434 -246.548,269.06 	"/>
	<path fill="#231F20" d="M-241.262,269.021l-0.721,0.077l-0.453-4.197l1.012-0.11c0.809-0.087,1.257,0.212,1.354,1.107
		c0.072,0.675-0.159,0.975-0.392,1.111l0.816,1.837l-0.733,0.078l-0.699-1.683c-0.092,0.022-0.241,0.044-0.37,0.057
		L-241.262,269.021z M-241.512,266.706l0.257-0.026c0.39-0.042,0.519-0.203,0.465-0.703s-0.215-0.63-0.604-0.588l-0.256,0.026
		L-241.512,266.706z"/>
	<path fill="none" stroke="#BB9753" stroke-width="0.158" d="M-241.262,269.021l-0.721,0.077l-0.453-4.197l1.012-0.11
		c0.809-0.087,1.257,0.212,1.354,1.107c0.072,0.675-0.159,0.975-0.392,1.111l0.816,1.837l-0.733,0.078l-0.699-1.683
		c-0.092,0.022-0.241,0.044-0.37,0.057L-241.262,269.021z M-241.512,266.706l0.257-0.026c0.39-0.042,0.519-0.203,0.465-0.703
		s-0.215-0.63-0.604-0.588l-0.256,0.026L-241.512,266.706z"/>
	<polygon fill="#231F20" points="-235.239,267.761 -236.648,263.78 -234.817,263.132 -234.607,263.729 -235.754,264.133 
		-235.391,265.158 -234.51,264.847 -234.298,265.441 -235.181,265.755 -234.767,266.924 -233.543,266.49 -233.332,267.085 	"/>
	<polygon fill="none" stroke="#BB9753" stroke-width="0.158" points="-235.239,267.761 -236.648,263.78 -234.817,263.132 
		-234.607,263.729 -235.754,264.133 -235.391,265.158 -234.51,264.847 -234.298,265.441 -235.181,265.755 -234.767,266.924 
		-233.543,266.49 -233.332,267.085 	"/>
	<polygon fill="#231F20" points="-229.188,264.988 -231.48,261.442 -230.916,261.076 -228.862,262.626 -228.853,262.619 
		-230.165,260.591 -229.615,260.236 -227.322,263.781 -227.854,264.124 -230.061,262.411 -230.07,262.418 -228.639,264.632 	"/>
	<polygon fill="none" stroke="#BB9753" stroke-width="0.158" points="-229.188,264.988 -231.48,261.442 -230.916,261.076 
		-228.862,262.626 -228.853,262.619 -230.165,260.591 -229.615,260.236 -227.322,263.781 -227.854,264.124 -230.061,262.411 
		-230.07,262.418 -228.639,264.632 	"/>
	<path fill="#231F20" d="M-224.69,257.696l-0.237-0.226c-0.259-0.246-0.481-0.231-0.609-0.096c-0.202,0.212-0.157,0.385,0.073,0.602
		l1.551,1.474c0.229,0.219,0.403,0.255,0.604,0.043c0.182-0.189,0.131-0.358-0.067-0.548l-0.37-0.351l0.501-0.526l0.351,0.335
		c0.434,0.411,0.543,1,0.044,1.525c-0.523,0.551-1.116,0.472-1.55,0.06l-1.577-1.498c-0.432-0.411-0.542-1-0.019-1.551
		c0.5-0.526,1.122-0.418,1.58,0.017l0.226,0.216L-224.69,257.696z"/>
	<path fill="none" stroke="#BB9753" stroke-width="0.158" d="M-224.69,257.696l-0.237-0.226c-0.259-0.246-0.481-0.231-0.609-0.096
		c-0.202,0.212-0.157,0.385,0.073,0.602l1.551,1.474c0.229,0.219,0.403,0.255,0.604,0.043c0.182-0.189,0.131-0.358-0.067-0.548
		l-0.37-0.351l0.501-0.526l0.351,0.335c0.434,0.411,0.543,1,0.044,1.525c-0.523,0.551-1.116,0.472-1.55,0.06l-1.577-1.498
		c-0.432-0.411-0.542-1-0.019-1.551c0.5-0.526,1.122-0.418,1.58,0.017l0.226,0.216L-224.69,257.696z"/>
	<polygon fill="#231F20" points="-219.695,255.69 -223.342,253.561 -222.363,251.883 -221.816,252.202 -222.431,253.253 
		-221.491,253.8 -221.02,252.993 -220.474,253.312 -220.945,254.12 -219.874,254.746 -219.219,253.624 -218.674,253.942 	"/>
	<polygon fill="none" stroke="#BB9753" stroke-width="0.158" points="-219.695,255.69 -223.342,253.561 -222.363,251.883 
		-221.816,252.202 -222.431,253.253 -221.491,253.8 -221.02,252.993 -220.474,253.312 -220.945,254.12 -219.874,254.746 
		-219.219,253.624 -218.674,253.942 	"/>
	<path fill="#FFFFFF" d="M-266.92,253.069l0.286-0.16c0.311-0.176,0.362-0.393,0.271-0.556c-0.145-0.255-0.322-0.261-0.598-0.106
		l-1.864,1.051c-0.275,0.154-0.362,0.311-0.22,0.565c0.129,0.229,0.305,0.231,0.547,0.097l0.441-0.25l0.357,0.632l-0.426,0.238
		c-0.519,0.293-1.114,0.226-1.47-0.407c-0.373-0.662-0.122-1.206,0.398-1.499l1.895-1.068c0.521-0.291,1.116-0.224,1.49,0.438
		c0.354,0.632,0.068,1.195-0.482,1.506l-0.27,0.151L-266.92,253.069z"/>
	<path fill="#FFFFFF" d="M-263.879,256.73c0.437-0.407,1.031-0.481,1.551,0.075c0.518,0.557,0.401,1.144-0.034,1.551l-1.593,1.484
		c-0.436,0.406-1.03,0.48-1.55-0.075c-0.519-0.557-0.402-1.145,0.034-1.551L-263.879,256.73z M-264.963,258.732
		c-0.231,0.216-0.279,0.388-0.079,0.602c0.2,0.215,0.375,0.179,0.604-0.036l1.567-1.46c0.231-0.216,0.278-0.389,0.079-0.602
		c-0.2-0.214-0.374-0.178-0.605,0.037L-264.963,258.732z"/>
	<polygon fill="#FFFFFF" points="-261.109,263.577 -258.785,260.054 -258.224,260.425 -258.817,262.927 -258.807,262.933 
		-257.478,260.917 -256.931,261.277 -259.255,264.802 -259.783,264.454 -259.102,261.743 -259.111,261.737 -260.562,263.938 	"/>
	<polygon fill="#FFFFFF" points="-255.055,266.9 -253.606,262.934 -251.705,263.628 -251.922,264.222 -253.142,263.775 
		-253.515,264.798 -252.603,265.131 -252.819,265.724 -253.731,265.392 -254.373,267.148 	"/>
	<polygon fill="#FFFFFF" points="-248.721,268.482 -248.202,264.293 -246.276,264.53 -246.353,265.157 -247.56,265.008 
		-247.693,266.089 -246.765,266.201 -246.842,266.829 -247.771,266.715 -247.924,267.944 -246.635,268.104 -246.712,268.73 	"/>
	<path fill="#FFFFFF" d="M-241.426,268.692l-0.723,0.077l-0.45-4.197l1.011-0.109c0.809-0.087,1.257,0.212,1.354,1.106
		c0.074,0.675-0.158,0.976-0.392,1.112l0.815,1.836l-0.731,0.078l-0.699-1.683c-0.092,0.022-0.243,0.045-0.37,0.058
		L-241.426,268.692z M-241.676,266.378l0.256-0.027c0.39-0.043,0.519-0.203,0.467-0.703c-0.056-0.5-0.216-0.63-0.605-0.588
		l-0.257,0.027L-241.676,266.378z"/>
	<polygon fill="#FFFFFF" points="-235.526,267.473 -236.936,263.492 -235.105,262.845 -234.896,263.44 -236.041,263.846 
		-235.679,264.871 -234.797,264.559 -234.586,265.154 -235.468,265.467 -235.054,266.636 -233.83,266.202 -233.62,266.798 	"/>
	<polygon fill="#FFFFFF" points="-229.518,264.783 -231.81,261.236 -231.245,260.87 -229.191,262.421 -229.183,262.414 
		-230.493,260.385 -229.944,260.03 -227.65,263.576 -228.183,263.919 -230.389,262.206 -230.399,262.213 -228.968,264.427 	"/>
	<path fill="#FFFFFF" d="M-225.06,257.573l-0.237-0.226c-0.26-0.246-0.482-0.231-0.61-0.096c-0.202,0.211-0.156,0.384,0.072,0.602
		l1.553,1.475c0.229,0.217,0.402,0.254,0.604,0.043c0.183-0.191,0.132-0.36-0.066-0.549l-0.37-0.351l0.5-0.525l0.352,0.334
		c0.434,0.41,0.542,1.001,0.043,1.525c-0.522,0.551-1.117,0.471-1.549,0.06l-1.578-1.497c-0.431-0.412-0.542-1.001-0.018-1.553
		c0.499-0.524,1.122-0.417,1.58,0.019l0.225,0.214L-225.06,257.573z"/>
	<polygon fill="#FFFFFF" points="-219.859,255.361 -223.506,253.231 -222.527,251.555 -221.981,251.873 -222.595,252.924 
		-221.655,253.472 -221.184,252.664 -220.639,252.983 -221.11,253.79 -220.039,254.418 -219.384,253.296 -218.838,253.613 	"/>
</g>
</svg>
