<?xml version="1.0" encoding="utf-8"?>
<!-- Generator: Adobe Illustrator 16.2.1, SVG Export Plug-In . SVG Version: 6.00 Build 0)  -->
<!DOCTYPE svg PUBLIC "-//W3C//DTD SVG 1.1//EN" "http://www.w3.org/Graphics/SVG/1.1/DTD/svg11.dtd">
<svg version="1.1" id="Layer_2" xmlns="http://www.w3.org/2000/svg" xmlns:xlink="http://www.w3.org/1999/xlink" x="0px" y="0px"
	 width="400px" height="400px" viewBox="0 0 400 400" enable-background="new 0 0 400 400" xml:space="preserve">
<g>
	<path fill="#BB9753" d="M199.649,379.188c92.86,0,168.154-75.362,168.154-168.319c0-92.951-75.294-168.308-168.154-168.308
		c-92.878,0-168.16,75.357-168.16,168.308C31.489,303.826,106.771,379.188,199.649,379.188"/>
	<path fill="none" stroke="#DD0031" stroke-width="1.049" d="M199.649,379.188c92.86,0,168.154-75.362,168.154-168.319
		c0-92.951-75.294-168.308-168.154-168.308c-92.878,0-168.16,75.357-168.16,168.308C31.489,303.826,106.771,379.188,199.649,379.188
		z"/>
	<ellipse fill="none" stroke="#231F20" stroke-width="0.683" cx="199.654" cy="210.671" rx="165.404" ry="165.555"/>
	<ellipse fill="none" stroke="#231F20" stroke-width="0.524" cx="199.654" cy="210.671" rx="165.404" ry="165.555"/>
	<path fill="#231F20" d="M268.261,62.314c-3.771-6.682-36.569-21.213-67.532-21.213c-30.958,0-63.761,14.532-67.528,21.213v39.972
		h135.102L268.261,62.314z"/>
	<path fill="none" stroke="#DD0031" stroke-width="0.803" d="M268.261,62.314c-3.771-6.682-36.569-21.213-67.532-21.213
		c-30.958,0-63.761,14.532-67.528,21.213v39.972h135.102L268.261,62.314z"/>
	<path fill="none" stroke="#DD0031" stroke-width="0.709" d="M268.261,62.314c-3.771-6.682-36.569-21.213-67.532-21.213
		c-30.958,0-63.761,14.532-67.528,21.213v39.972h135.102L268.261,62.314z"/>
	<path fill="#231F20" d="M250.122,24.897c-17.288-8.173-33.062-10.585-50.018-10.76c-21.092-0.222-40.724,4.692-50.023,10.062
		v73.542h100.073L250.122,24.897z"/>
	<path fill="none" stroke="#DD0031" stroke-width="0.805" d="M250.122,24.897c-17.288-8.173-33.062-10.585-50.018-10.76
		c-21.092-0.222-40.724,4.692-50.023,10.062v73.542h100.073L250.122,24.897z"/>
	<path fill="none" stroke="#DD0031" stroke-width="0.711" d="M250.122,24.897c-17.288-8.173-33.062-10.585-50.018-10.76
		c-21.092-0.222-40.724,4.692-50.023,10.062v73.542h100.073L250.122,24.897z"/>
	<path fill="#FFFFFF" d="M183.191,25.744v0.894c-0.846,0.371-0.941,0.921-0.941,1.582v34.56c0,0.667,0.095,1.165,0.941,1.089v0.895
		l-6.4,0.846v-0.894c0.613-0.158,0.783-0.508,0.783-1.021c0-0.968-0.841-1.708-9.718-21.271v22.837c0,0.672,0.095,1.158,0.936,1.085
		v0.893l-6.391,1.699v-0.895c0.847-0.37,0.948-0.92,0.948-1.586V32.113c0-0.672-0.101-1.164-0.948-1.089v-0.895
		c0.857-0.316,7.338-1.994,8.11-2.152v0.899c-0.772,0.275-0.936,0.767-0.936,1.211c0,0.82,5.813,13.162,8.167,18.25V28.86
		c0-0.899-0.264-1.201-0.703-1.153v-0.894C177.674,26.617,182.388,25.792,183.191,25.744"/>
	<path fill="none" stroke="#FFFFFF" stroke-width="0.185" d="M183.191,25.744v0.894c-0.846,0.371-0.941,0.921-0.941,1.582v34.56
		c0,0.667,0.095,1.165,0.941,1.089v0.895l-6.4,0.846v-0.894c0.613-0.158,0.783-0.508,0.783-1.021c0-0.968-0.841-1.708-9.718-21.271
		v22.837c0,0.672,0.095,1.158,0.936,1.085v0.893l-6.391,1.699v-0.895c0.847-0.37,0.948-0.92,0.948-1.586V32.113
		c0-0.672-0.101-1.164-0.948-1.089v-0.895c0.857-0.316,7.338-1.994,8.11-2.152v0.899c-0.772,0.275-0.936,0.767-0.936,1.211
		c0,0.82,5.813,13.162,8.167,18.25V28.86c0-0.899-0.264-1.201-0.703-1.153v-0.894C177.674,26.617,182.388,25.792,183.191,25.744z"/>
	<path fill="#FFFFFF" d="M192.739,26.178c0-0.455-0.1-0.81-0.935-0.91v-0.603h12.807c3.63,0,6.289,4.132,6.289,9.12
		c0,3.031-1.343,9.125-3.232,9.729v0.105c2.26,0.905,3.905,4.835,3.905,8.57c0,4.031-2.016,11.696-6.792,11.696h-12.977v-0.603
		c0.835-0.101,0.935-0.46,0.935-0.91V26.178z M197.782,40.996h4.575c2.895,0,3.635-4.539,3.635-6.549
		c0-2.021-0.74-4.439-3.635-4.439h-4.575V40.996z M197.782,58.537h5.719c2.353,0,3.295-5.036,3.295-7.258
		c0-2.217-0.942-5.137-3.295-5.137h-5.719V58.537z"/>
	<path fill="none" stroke="#FFFFFF" stroke-width="0.185" d="M192.739,26.178c0-0.455-0.1-0.81-0.935-0.91v-0.603h12.807
		c3.63,0,6.289,4.132,6.289,9.12c0,3.031-1.343,9.125-3.232,9.729v0.105c2.26,0.905,3.905,4.835,3.905,8.57
		c0,4.031-2.016,11.696-6.792,11.696h-12.977v-0.603c0.835-0.101,0.935-0.46,0.935-0.91V26.178z M197.782,40.996h4.575
		c2.895,0,3.635-4.539,3.635-6.549c0-2.021-0.74-4.439-3.635-4.439h-4.575V40.996z M197.782,58.537h5.719
		c2.353,0,3.295-5.036,3.295-7.258c0-2.217-0.942-5.137-3.295-5.137h-5.719V58.537z"/>
	<path fill="#FFFFFF" d="M224.29,57.506c-0.872,5.433-1.073,6.104-1.073,6.57c0,0.465,0.132,0.809,0.607,0.926l-0.116,0.83
		l-5.978-0.995v-0.931c0.471-0.11,0.673-0.37,0.873-1.56c0.295-1.699,6.132-33.344,6.132-33.804c0-0.55-0.376-0.799-0.673-0.952
		v-0.92l8.776,2.243v0.931c-0.371-0.016-0.608,0.074-0.608,0.847c0,0.624,4.131,23.075,6.216,35.385
		c0.339,1.941,0.544,2.459,0.946,2.56v0.932l-6.628-1.704v-0.921c0.471,0.037,0.641-0.301,0.641-0.767
		c0-0.312-1.006-5.867-1.143-6.909L224.29,57.506z M225.131,51.237l6.254,1.613l-3.259-17.864L225.131,51.237z"/>
	<path fill="none" stroke="#FFFFFF" stroke-width="0.185" d="M224.29,57.506c-0.872,5.433-1.073,6.104-1.073,6.57
		c0,0.465,0.132,0.809,0.607,0.926l-0.116,0.83l-5.978-0.995v-0.931c0.471-0.11,0.673-0.37,0.873-1.56
		c0.295-1.699,6.132-33.344,6.132-33.804c0-0.55-0.376-0.799-0.673-0.952v-0.92l8.776,2.243v0.931
		c-0.371-0.016-0.608,0.074-0.608,0.847c0,0.624,4.131,23.075,6.216,35.385c0.339,1.941,0.544,2.459,0.946,2.56v0.932l-6.628-1.704
		v-0.921c0.471,0.037,0.641-0.301,0.641-0.767c0-0.312-1.006-5.867-1.143-6.909L224.29,57.506z M225.131,51.237l6.254,1.613
		l-3.259-17.864L225.131,51.237z"/>
	<path fill="#CC6D19" d="M116.659,304.53c53.747,47.361,134.33,40.559,179.983-15.209c45.653-55.752,39.093-139.346-14.653-186.712
		C228.241,55.247,147.653,62.061,102,117.818C56.352,173.569,62.912,257.168,116.659,304.53"/>
	<path fill="none" stroke="#231F20" stroke-width="1.103" d="M116.659,304.53c53.747,47.361,134.33,40.559,179.983-15.209
		c45.653-55.752,39.093-139.346-14.653-186.712C228.241,55.247,147.653,62.061,102,117.818
		C56.352,173.569,62.912,257.168,116.659,304.53z"/>
	<path fill="none" stroke="#231F20" stroke-width="0.945" d="M116.659,304.53c53.747,47.361,134.33,40.559,179.983-15.209
		c45.653-55.752,39.093-139.346-14.653-186.712C228.241,55.247,147.653,62.061,102,117.818
		C56.352,173.569,62.912,257.168,116.659,304.53z"/>
	<path fill="none" stroke="#231F20" stroke-width="1.103" d="M184.102,71.635c-32.951,75.685-17.812,199.467,31.164,262.688"/>
	<path fill="none" stroke="#231F20" stroke-width="1.103" d="M116.659,304.53c35.385,15.547,135.119,32.469,198.34-45.902"/>
	<path fill="none" stroke="#231F20" stroke-width="1.103" d="M134.682,90.114c-8.908,14.251-63.671,106.192,15.362,197.912
		c10.437,12.107,25.451,21.054,27.154,29.83c1.555,8.009-2.444,12.907-6.454,15.135"/>
	<path fill="none" stroke="#231F20" stroke-width="1.103" d="M230.405,75.195c9.798,11.579,42.744,115.768,9.798,203.032
		c-7.888,20.874-12.47,28.492-10.688,33.396c3.139,8.622,14.691,10.681,32.06,7.12"/>
	<path fill="none" stroke="#231F20" stroke-width="0.945" d="M184.102,71.635c-32.951,75.685-17.812,199.467,31.164,262.688"/>
	<path fill="none" stroke="#231F20" stroke-width="0.945" d="M116.659,304.53c35.385,15.547,135.119,32.469,198.34-45.902"/>
	<path fill="none" stroke="#231F20" stroke-width="0.945" d="M134.682,90.114c-8.908,14.251-63.671,106.192,15.362,197.912
		c10.437,12.107,25.451,21.054,27.154,29.83c1.555,8.009-2.444,12.907-6.454,15.135"/>
	<path fill="none" stroke="#231F20" stroke-width="0.945" d="M230.405,75.195c9.798,11.579,42.744,115.768,9.798,203.032
		c-7.888,20.874-12.47,28.492-10.688,33.396c3.139,8.622,14.691,10.681,32.06,7.12"/>
	<polygon fill="#231F20" points="199.597,102.471 377.786,165.1 377.786,243.124 200.178,314.476 21.666,243.124 21.666,164.729 	
		"/>
	<polygon fill="none" stroke="#231F20" stroke-width="0.158" points="199.597,102.471 377.786,165.1 377.786,243.124 
		200.178,314.476 21.666,243.124 21.666,164.729 	"/>
	<polygon fill="#DD0031" points="199.242,83.11 370.143,146.96 370.143,239.663 199.812,307.238 29.473,239.663 29.473,146.96 	"/>
	<polygon fill="none" stroke="#231F20" stroke-width="1.103" points="199.242,83.11 370.143,146.96 370.143,239.663 
		199.812,307.238 29.473,239.663 29.473,146.96 	"/>
	<polygon fill="none" stroke="#231F20" stroke-width="0.945" points="199.242,83.11 370.143,146.96 370.143,239.663 
		199.812,307.238 29.473,239.663 29.473,146.96 	"/>
	<polygon fill="#FFFFFF" points="56.13,230.924 50.02,165.724 45.958,167.221 45.074,158.688 60.309,153.435 62.531,216.642 
		65.637,151.811 73.82,148.532 78.253,217.382 81.464,146.065 95.927,141.343 95.922,150.314 93.626,151.049 84.12,242.012 
		72.714,237.192 70.075,198.427 67.345,235.324 	"/>
	<path fill="#FFFFFF" d="M171.263,277.111c3.792,1.582,6.454-0.005,6.454-4.908v-57.271c0-5.503-1.698-8.893-2.957-11.057
		l-17.748-31.852c-1.238-0.953-1.048-13.484-1.048-13.955v-22.975c0-1.291-0.608-3.776,1.772-4.714l4.57-1.491
		c2.883-0.937,2.937,1.385,2.926,3.661v31.217l10.491,4.724v-43.024c0-11.189-1.841-11.612-7.755-9.797
		c-1.762,0.549-17.738,6.036-17.738,6.036c-5.692,1.74-4.745,4.734-4.745,12.997v29.148c0,10.359,2.422,12.66,4.237,15.792
		l16.531,30.381c0.296,0.481,0.979,1.666,0.979,6.532v42.951c0,5.511,0.439,6.707-2.063,5.655l-6.269-2.667
		c-1.618-0.629-1.433-1.249-1.433-4.762v-31.749l-10.479-7.937v43.284c0,1.406-0.947,5.269,4.079,7.766L171.263,277.111z"/>
	<path fill="#FFFFFF" d="M265.532,260.506v-8.364l4.253-1.835V139.824l-5.053-1.81v-9.383l18.997,6.744
		c12.356,4.549,16.336,6.348,16.325,17.907v31.883c-0.011,5.624-3.184,8.703-10.792,8.427v0.206
		c10.142,0.296,9.569,5.391,9.569,15.631l-0.021,25.933c-0.004,7.327,1.207,8.401,1.941,11.078l-11.559,4.581
		c-0.926-1.762-1.761-2.715-1.755-7.904l0.015-35.729c0.006-4.665-0.713-7.771-5.818-7.771l-0.022,46.183l2.52-1.047v8.273
		L265.532,260.506z M282.729,188.709l1.582,0.445c2.142,0.586,4.354-0.709,4.354-4.312l0.011-35.893
		c0.006-3.597-2.207-4.184-4.343-4.898l-1.588-0.577L282.729,188.709z"/>
	<polygon fill="#FFFFFF" points="330.223,150.621 342.55,209.044 339.285,163.058 335.181,161.805 335.181,152.557 352.463,158.408 
		352.463,167.703 349.633,166.788 349.633,227.744 338.856,232.368 325.658,182.388 325.658,237.215 309.82,243.891 309.82,235.469 
		314.284,233.58 314.284,154.366 309.82,152.806 309.82,143.67 	"/>
	<polygon fill="#FFFFFF" points="96.917,246.99 96.917,238.568 100.72,240.34 100.805,139.708 135.946,127.271 135.946,169.756 
		125.636,165.29 125.636,139.956 112.866,144.469 112.866,190.678 121.949,190.678 121.949,183.065 129.498,183.065 
		129.498,208.136 121.949,208.136 121.949,200.512 112.866,200.512 112.866,244.89 125.636,249.994 125.636,222.323 
		135.946,218.012 135.946,262.501 	"/>
	<polygon fill="#FFFFFF" points="236.553,200.522 244.921,200.522 244.921,208.129 251.888,208.129 251.888,183.065 
		244.921,183.065 244.921,190.678 236.553,190.672 236.553,127.244 248.333,131.165 248.333,169.57 257.834,164.99 257.834,125.34 
		225.417,113.988 225.342,267.765 221.841,269.551 221.841,277.693 257.834,263.526 257.834,225.49 248.333,220.725 
		248.333,258.775 236.553,263.737 236.553,200.518 	"/>
	<polygon fill="#FFFFFF" points="200.015,285.561 191.026,282.1 191.026,272.758 193.709,273.985 193.709,116.479 178.198,121.594 
		178.113,112.512 199.242,104.91 222.169,112.634 222.169,121.716 205.738,116.479 205.738,273.985 208.389,272.806 
		208.389,282.163 	"/>
	<polygon fill="#DD0031" points="218.565,122.874 208.209,119.542 208.209,121.748 218.565,125.017 	"/>
	<polygon fill="#231F20" points="191.228,119.722 191.228,270.457 188.773,269.356 188.773,120.415 	"/>
	<polygon fill="none" stroke="#DD0031" stroke-width="0.158" points="191.228,119.722 191.228,270.457 188.773,269.356 
		188.773,120.415 	"/>
	<polygon fill="#231F20" points="188.011,271.583 188.011,281.259 185.355,280.223 185.355,270.383 	"/>
	<polygon fill="none" stroke="#DD0031" stroke-width="0.158" points="188.011,271.583 188.011,281.259 185.355,280.223 
		185.355,270.383 	"/>
	<polygon fill="#231F20" points="42.63,159.281 43.471,167.316 41.075,168.163 40.191,159.99 	"/>
	<polygon fill="none" stroke="#DD0031" stroke-width="0.158" points="42.63,159.281 43.471,167.316 41.075,168.163 40.191,159.99 	
		"/>
	<polygon fill="#231F20" points="45.545,170.036 47.882,169.163 53.691,229.961 51.242,229.142 	"/>
	<polygon fill="none" stroke="#DD0031" stroke-width="0.158" points="45.545,170.036 47.882,169.163 53.691,229.961 51.242,229.142 
			"/>
	<polygon fill="#231F20" points="79.02,146.924 76.582,147.902 76.397,152.097 77.962,170.211 	"/>
	<polygon fill="none" stroke="#DD0031" stroke-width="0.158" points="79.02,146.924 76.582,147.902 76.397,152.097 77.962,170.211 	
		"/>
	<polygon fill="#231F20" points="95.853,152.774 98.276,151.944 98.276,236.754 95.837,235.754 	"/>
	<polygon fill="none" stroke="#DD0031" stroke-width="0.158" points="95.853,152.774 98.276,151.944 98.276,236.754 95.837,235.754 
			"/>
	<polygon fill="#231F20" points="94.509,237.802 92.034,236.707 92.034,244.811 94.473,245.948 	"/>
	<polygon fill="none" stroke="#DD0031" stroke-width="0.158" points="94.509,237.802 92.034,236.707 92.034,244.811 94.473,245.948 
			"/>
	<polygon fill="#231F20" points="120.753,163.053 120.753,144.485 123.192,143.601 123.192,166.75 131.021,170.179 131.021,172.342 
		120.753,168.242 	"/>
	<polygon fill="none" stroke="#DD0031" stroke-width="0.158" points="120.753,163.053 120.753,144.485 123.192,143.601 
		123.192,166.75 131.021,170.179 131.021,172.342 120.753,168.242 	"/>
	<polygon fill="#231F20" points="119.531,183.07 119.531,188.45 117.061,188.45 117.061,183.097 	"/>
	<polygon fill="none" stroke="#DD0031" stroke-width="0.158" points="119.531,183.07 119.531,188.45 117.061,188.45 
		117.061,183.097 	"/>
	<rect x="117.156" y="202.729" fill="#231F20" width="2.38" height="5.421"/>
	<rect x="117.156" y="202.732" fill="none" stroke="#DD0031" stroke-width="0.158" width="2.38" height="5.424"/>
	<polygon fill="#231F20" points="120.822,219.571 120.822,245.699 123.197,246.466 123.197,221.016 131.063,217.609 
		131.063,215.478 	"/>
	<polygon fill="none" stroke="#DD0031" stroke-width="0.158" points="120.822,219.571 120.822,245.699 123.197,246.466 
		123.197,221.016 131.063,217.609 131.063,215.478 	"/>
	<path fill="#231F20" d="M159.852,133.772v32.905l11.601,4.824v-2.449l-8.914-3.999v-32.577c0-0.471,0.186-1.724-1.459-1.385
		c-1.704,0.364-2.106,0.534-2.106,0.534C159.249,131.625,159.852,132.164,159.852,133.772"/>
	<path fill="none" stroke="#DD0031" stroke-width="0.158" d="M159.852,133.772v32.905l11.601,4.824v-2.449l-8.914-3.999v-32.577
		c0-0.471,0.186-1.724-1.459-1.385c-1.704,0.364-2.106,0.534-2.106,0.534C159.249,131.625,159.852,132.164,159.852,133.772z"/>
	<path fill="#231F20" d="M142.02,215.101l-0.148,45.057c-0.127,3.713,0.35,5.767,5.037,7.823c-0.688-0.581-3.396-3.168-2.582-7.638
		l0.132-43.362L142.02,215.101z"/>
	<path fill="none" stroke="#DD0031" stroke-width="0.158" d="M142.02,215.101l-0.148,45.057c-0.127,3.713,0.35,5.767,5.037,7.823
		c-0.688-0.581-3.396-3.168-2.582-7.638l0.132-43.362L142.02,215.101z"/>
	<path fill="#231F20" d="M162.296,260.405c0.132-0.592-0.069-43.251-0.069-45.24c0-3.994-1.084-4.703-1.83-6.114
		c-0.746-1.524-13.294-24.966-15.738-28.858c-2.682-4.265-4.312-7.438-4.312-12.681v-37.353c-0.137-5.877,5.021-6.528,5.402-6.628
		c-3.19,1.587-2.756,6.157-2.894,6.687v37.358c0.073,5.051,2.307,8.997,4.2,11.706l15.816,29.118
		c0.794,1.364,1.863,3.254,1.863,5.533v47.535c0,0.524,0.481,1.821-1.349,1.303c-2.154-0.604-1.429-0.598-1.429-0.598
		S162.322,262.448,162.296,260.405"/>
	<path fill="none" stroke="#DD0031" stroke-width="0.158" d="M162.296,260.405c0.132-0.592-0.069-43.251-0.069-45.24
		c0-3.994-1.084-4.703-1.83-6.114c-0.746-1.524-13.294-24.966-15.738-28.858c-2.682-4.265-4.312-7.438-4.312-12.681v-37.353
		c-0.137-5.877,5.021-6.528,5.402-6.628c-3.19,1.587-2.756,6.157-2.894,6.687v37.358c0.073,5.051,2.307,8.997,4.2,11.706
		l15.816,29.118c0.794,1.364,1.863,3.254,1.863,5.533v47.535c0,0.524,0.481,1.821-1.349,1.303c-2.154-0.604-1.429-0.598-1.429-0.598
		S162.322,262.448,162.296,260.405z"/>
	<polygon fill="#231F20" points="219.354,278.635 216.909,279.477 216.909,271.509 219.354,270.414 	"/>
	<polygon fill="none" stroke="#DD0031" stroke-width="0.158" points="219.354,278.635 216.909,279.477 216.909,271.509 
		219.354,270.414 	"/>
	<polygon fill="#231F20" points="245.71,220.729 245.694,257.75 243.25,258.733 243.25,220.729 	"/>
	<polygon fill="none" stroke="#DD0031" stroke-width="0.158" points="245.71,220.729 245.694,257.75 243.25,258.733 243.25,220.729 
			"/>
	<polygon fill="#231F20" points="243.276,169.872 243.318,131.741 245.763,132.555 245.763,169.872 	"/>
	<polygon fill="none" stroke="#DD0031" stroke-width="0.158" points="243.276,169.872 243.318,131.741 245.763,132.555 
		245.763,169.872 	"/>
	<polygon fill="#231F20" points="239.577,182.822 242.017,182.822 242.017,188.545 239.594,188.545 	"/>
	<polygon fill="none" stroke="#DD0031" stroke-width="0.158" points="239.577,182.822 242.017,182.822 242.017,188.545 
		239.594,188.545 	"/>
	<polygon fill="#231F20" points="239.577,202.66 242.017,202.66 242.017,208.149 239.594,208.149 	"/>
	<polygon fill="none" stroke="#DD0031" stroke-width="0.158" points="239.577,202.66 242.017,202.66 242.017,208.149 
		239.594,208.149 	"/>
	<polygon fill="#231F20" points="264.976,140.734 267.351,141.581 267.351,249.153 264.918,250.022 	"/>
	<polygon fill="none" stroke="#DD0031" stroke-width="0.158" points="264.976,140.734 267.351,141.581 267.351,249.153 
		264.918,250.022 	"/>
	<polygon fill="#231F20" points="307.376,142.565 307.376,151.88 304.938,151.209 304.938,141.717 	"/>
	<polygon fill="none" stroke="#DD0031" stroke-width="0.158" points="307.376,142.565 307.376,151.88 304.938,151.209 
		304.938,141.717 	"/>
	<polygon fill="#231F20" points="311.846,232.306 309.539,233.343 309.402,155.091 311.846,155.79 	"/>
	<polygon fill="none" stroke="#DD0031" stroke-width="0.158" points="311.846,232.306 309.539,233.343 309.402,155.091 
		311.846,155.79 	"/>
	<polygon fill="#231F20" points="307.376,236.314 307.376,244.922 304.938,245.916 304.938,237.155 	"/>
	<polygon fill="none" stroke="#DD0031" stroke-width="0.158" points="307.376,236.314 307.376,244.922 304.938,245.916 
		304.938,237.155 	"/>
	<polygon fill="#231F20" points="328.463,202.268 328.463,211.494 334.122,234.336 336.461,233.288 	"/>
	<polygon fill="none" stroke="#DD0031" stroke-width="0.158" points="328.463,202.268 328.463,211.494 334.122,234.336 
		336.461,233.288 	"/>
	<polygon fill="#231F20" points="263.077,252.787 263.077,261.395 260.633,262.385 260.633,253.634 	"/>
	<polygon fill="none" stroke="#DD0031" stroke-width="0.158" points="263.077,252.787 263.077,261.395 260.633,262.385 
		260.633,253.634 	"/>
	<polygon fill="#231F20" points="220.661,123.626 223.036,124.467 223.036,266.553 220.614,267.42 	"/>
	<polygon fill="none" stroke="#DD0031" stroke-width="0.158" points="220.661,123.626 223.036,124.467 223.036,266.553 
		220.614,267.42 	"/>
	<path fill="#231F20" d="M78.126,285.195l1.545-0.868c1.682-0.953,1.962-2.121,1.47-3.009c-0.788-1.382-1.75-1.419-3.237-0.583
		l-10.104,5.697c-1.491,0.835-1.962,1.683-1.179,3.063c0.693,1.237,1.645,1.248,2.951,0.519l2.397-1.355l1.931,3.423l-2.301,1.291
		c-2.809,1.587-6.041,1.228-7.962-2.206c-2.026-3.586-0.667-6.532,2.154-8.12l10.268-5.782c2.814-1.575,6.041-1.216,8.068,2.376
		c1.93,3.417,0.37,6.48-2.608,8.151l-1.466,0.825L78.126,285.195z"/>
	<path fill="none" stroke="#BB9753" stroke-width="0.158" d="M78.126,285.195l1.545-0.868c1.682-0.953,1.962-2.121,1.47-3.009
		c-0.788-1.382-1.75-1.419-3.237-0.583l-10.104,5.697c-1.491,0.835-1.962,1.683-1.179,3.063c0.693,1.237,1.645,1.248,2.951,0.519
		l2.397-1.355l1.931,3.423l-2.301,1.291c-2.809,1.587-6.041,1.228-7.962-2.206c-2.026-3.586-0.667-6.532,2.154-8.12l10.268-5.782
		c2.814-1.575,6.041-1.216,8.068,2.376c1.93,3.417,0.37,6.48-2.608,8.151l-1.466,0.825L78.126,285.195z"/>
	<path fill="#231F20" d="M94.594,305.027c2.375-2.206,5.591-2.608,8.395,0.401c2.815,3.021,2.18,6.2-0.18,8.407l-8.623,8.035
		c-2.365,2.205-5.586,2.607-8.395-0.408c-2.805-3.01-2.18-6.193,0.179-8.4L94.594,305.027z M88.722,315.872
		c-1.243,1.169-1.502,2.1-0.428,3.259c1.084,1.158,2.032,0.962,3.28-0.201l8.485-7.909c1.249-1.164,1.513-2.1,0.429-3.253
		c-1.08-1.158-2.032-0.969-3.281,0.201L88.722,315.872z"/>
	<path fill="none" stroke="#BB9753" stroke-width="0.158" d="M94.594,305.027c2.375-2.206,5.591-2.608,8.395,0.401
		c2.815,3.021,2.18,6.2-0.18,8.407l-8.623,8.035c-2.365,2.205-5.586,2.607-8.395-0.408c-2.805-3.01-2.18-6.193,0.179-8.4
		L94.594,305.027z M88.722,315.872c-1.243,1.169-1.502,2.1-0.428,3.259c1.084,1.158,2.032,0.962,3.28-0.201l8.485-7.909
		c1.249-1.164,1.513-2.1,0.429-3.253c-1.08-1.158-2.032-0.969-3.281,0.201L88.722,315.872z"/>
	<polygon fill="#231F20" points="109.597,342.115 122.192,323.023 125.234,325.029 122.018,338.582 122.071,338.624 129.27,327.701 
		132.232,329.658 119.642,348.744 116.791,346.86 120.473,332.181 120.425,332.149 112.559,344.072 	"/>
	<polygon fill="none" stroke="#BB9753" stroke-width="0.158" points="109.597,342.115 122.192,323.023 125.234,325.029 
		122.018,338.582 122.071,338.624 129.27,327.701 132.232,329.658 119.642,348.744 116.791,346.86 120.473,332.181 120.425,332.149 
		112.559,344.072 	"/>
	<polygon fill="#231F20" points="142.4,360.112 150.246,338.635 160.54,342.386 159.371,345.606 152.764,343.189 150.743,348.724 
		155.673,350.527 154.504,353.743 149.563,351.944 146.087,361.462 	"/>
	<polygon fill="none" stroke="#BB9753" stroke-width="0.158" points="142.4,360.112 150.246,338.635 160.54,342.386 
		159.371,345.606 152.764,343.189 150.743,348.724 155.673,350.527 154.504,353.743 149.563,351.944 146.087,361.462 	"/>
	<polygon fill="#231F20" points="176.711,368.688 179.516,345.982 189.952,347.279 189.529,350.674 182.991,349.859 
		182.271,355.717 187.302,356.329 186.884,359.732 181.854,359.106 181.027,365.773 188.011,366.641 187.587,370.03 	"/>
	<polygon fill="none" stroke="#BB9753" stroke-width="0.158" points="176.711,368.688 179.516,345.982 189.952,347.279 
		189.529,350.674 182.991,349.859 182.271,355.717 187.302,356.329 186.884,359.732 181.854,359.106 181.027,365.773 
		188.011,366.641 187.587,370.03 	"/>
	<path fill="#231F20" d="M216.223,369.825l-3.903,0.419l-2.454-22.737l5.479-0.599c4.381-0.471,6.809,1.148,7.338,5.999
		c0.391,3.655-0.862,5.279-2.121,6.021l4.421,9.95l-3.973,0.424l-3.787-9.115c-0.496,0.122-1.307,0.238-2.005,0.307L216.223,369.825
		z M214.869,357.282l1.391-0.143c2.111-0.228,2.81-1.101,2.519-3.809c-0.292-2.71-1.164-3.412-3.274-3.185l-1.386,0.142
		L214.869,357.282z"/>
	<path fill="none" stroke="#BB9753" stroke-width="0.158" d="M216.223,369.825l-3.903,0.419l-2.454-22.737l5.479-0.599
		c4.381-0.471,6.809,1.148,7.338,5.999c0.391,3.655-0.862,5.279-2.121,6.021l4.421,9.95l-3.973,0.424l-3.787-9.115
		c-0.496,0.122-1.307,0.238-2.005,0.307L216.223,369.825z M214.869,357.282l1.391-0.143c2.111-0.228,2.81-1.101,2.519-3.809
		c-0.292-2.71-1.164-3.412-3.274-3.185l-1.386,0.142L214.869,357.282z"/>
	<polygon fill="#231F20" points="248.848,362.996 241.214,341.433 251.132,337.921 252.27,341.152 246.06,343.343 248.026,348.897 
		252.798,347.21 253.946,350.433 249.164,352.129 251.407,358.462 258.035,356.113 259.178,359.334 	"/>
	<polygon fill="none" stroke="#BB9753" stroke-width="0.158" points="248.848,362.996 241.214,341.433 251.132,337.921 
		252.27,341.152 246.06,343.343 248.026,348.897 252.798,347.21 253.946,350.433 249.164,352.129 251.407,358.462 258.035,356.113 
		259.178,359.334 	"/>
	<polygon fill="#231F20" points="281.624,347.978 269.208,328.77 272.266,326.785 283.391,335.181 283.443,335.144 276.334,324.156 
		279.312,322.235 291.734,341.439 288.856,343.297 276.9,334.017 276.847,334.054 284.602,346.045 	"/>
	<polygon fill="none" stroke="#BB9753" stroke-width="0.158" points="281.624,347.978 269.208,328.77 272.266,326.785 
		283.391,335.181 283.443,335.144 276.334,324.156 279.312,322.235 291.734,341.439 288.856,343.297 276.9,334.017 276.847,334.054 
		284.602,346.045 	"/>
	<path fill="#231F20" d="M305.99,308.477l-1.286-1.223c-1.402-1.333-2.608-1.254-3.3-0.519c-1.096,1.148-0.853,2.085,0.396,3.26
		l8.4,7.981c1.239,1.187,2.186,1.381,3.274,0.233c0.984-1.026,0.709-1.941-0.364-2.967l-2.005-1.9l2.714-2.851l1.899,1.814
		c2.349,2.228,2.94,5.417,0.238,8.263c-2.836,2.982-6.047,2.556-8.396,0.323l-8.542-8.116c-2.339-2.226-2.937-5.417-0.102-8.4
		c2.708-2.851,6.077-2.264,8.56,0.091l1.222,1.169L305.99,308.477z"/>
	<path fill="none" stroke="#BB9753" stroke-width="0.158" d="M305.99,308.477l-1.286-1.223c-1.402-1.333-2.608-1.254-3.3-0.519
		c-1.096,1.148-0.853,2.085,0.396,3.26l8.4,7.981c1.239,1.187,2.186,1.381,3.274,0.233c0.984-1.026,0.709-1.941-0.364-2.967
		l-2.005-1.9l2.714-2.851l1.899,1.814c2.349,2.228,2.94,5.417,0.238,8.263c-2.836,2.982-6.047,2.556-8.396,0.323l-8.542-8.116
		c-2.339-2.226-2.937-5.417-0.102-8.4c2.708-2.851,6.077-2.264,8.56,0.091l1.222,1.169L305.99,308.477z"/>
	<polygon fill="#231F20" points="333.049,297.61 313.295,286.072 318.596,276.984 321.559,278.715 318.23,284.407 323.32,287.369 
		325.875,282.999 328.832,284.724 326.277,289.104 332.08,292.496 335.629,286.417 338.582,288.142 	"/>
	<polygon fill="none" stroke="#BB9753" stroke-width="0.158" points="333.049,297.61 313.295,286.072 318.596,276.984 
		321.559,278.715 318.23,284.407 323.32,287.369 325.875,282.999 328.832,284.724 326.277,289.104 332.08,292.496 335.629,286.417 
		338.582,288.142 	"/>
	<path fill="#FFFFFF" d="M77.232,283.413l1.55-0.868c1.682-0.953,1.963-2.127,1.465-3.01c-0.784-1.382-1.746-1.413-3.238-0.576
		l-10.099,5.69c-1.491,0.836-1.962,1.683-1.19,3.063c0.698,1.243,1.65,1.254,2.963,0.523l2.391-1.354l1.937,3.423l-2.307,1.291
		c-2.809,1.586-6.035,1.223-7.962-2.206c-2.02-3.587-0.661-6.533,2.159-8.12l10.263-5.787c2.825-1.576,6.047-1.211,8.073,2.376
		c1.92,3.422,0.371,6.475-2.613,8.156l-1.46,0.82L77.232,283.413z"/>
	<path fill="#FFFFFF" d="M93.705,303.245c2.365-2.207,5.587-2.609,8.401,0.407c2.804,3.015,2.174,6.194-0.185,8.401l-8.628,8.039
		c-2.36,2.201-5.582,2.603-8.396-0.407c-2.809-3.016-2.179-6.199,0.186-8.4L93.705,303.245z M87.833,314.09
		c-1.254,1.167-1.513,2.1-0.429,3.258c1.084,1.163,2.031,0.969,3.274-0.195l8.491-7.909c1.254-1.169,1.508-2.104,0.429-3.26
		c-1.084-1.157-2.026-0.962-3.281,0.202L87.833,314.09z"/>
	<polygon fill="#FFFFFF" points="108.708,340.333 121.298,321.246 124.34,323.257 121.124,336.811 121.182,336.841 128.382,325.923 
		131.344,327.876 118.753,346.967 115.892,345.084 119.585,330.397 119.531,330.367 111.67,342.29 	"/>
	<polygon fill="#FFFFFF" points="141.506,358.335 149.352,336.847 159.651,340.608 158.477,343.824 151.869,341.406 
		149.849,346.946 154.79,348.75 153.615,351.961 148.674,350.162 145.198,359.68 	"/>
	<polygon fill="#FFFFFF" points="175.817,366.905 178.626,344.21 189.059,345.497 188.646,348.892 182.107,348.084 181.383,353.938 
		186.413,354.547 185.996,357.949 180.96,357.331 180.134,363.99 187.117,364.857 186.699,368.248 	"/>
	<path fill="#FFFFFF" d="M215.334,368.043l-3.914,0.417l-2.439-22.735l5.477-0.593c4.379-0.472,6.807,1.147,7.331,5.993
		c0.402,3.656-0.857,5.284-2.121,6.025l4.417,9.944l-3.963,0.425l-3.787-9.115c-0.497,0.122-1.317,0.243-2.005,0.312
		L215.334,368.043z M213.979,355.505l1.387-0.147c2.111-0.233,2.81-1.101,2.528-3.81c-0.302-2.709-1.168-3.411-3.279-3.185
		l-1.392,0.148L213.979,355.505z"/>
	<polygon fill="#FFFFFF" points="247.291,361.436 239.658,339.873 249.571,336.365 250.709,339.592 244.503,341.788 
		246.466,347.342 251.243,345.649 252.385,348.876 247.608,350.568 249.852,356.902 256.479,354.554 257.617,357.779 	"/>
	<polygon fill="#FFFFFF" points="279.842,346.866 267.426,327.652 270.483,325.669 281.608,334.069 281.655,334.033 274.556,323.04 
		277.529,321.12 289.956,340.328 287.073,342.185 275.122,332.905 275.063,332.943 282.818,344.936 	"/>
	<path fill="#FFFFFF" d="M303.99,307.811l-1.285-1.223c-1.407-1.333-2.614-1.254-3.307-0.519c-1.095,1.142-0.846,2.078,0.392,3.26
		l8.41,7.986c1.238,1.175,2.181,1.376,3.271,0.233c0.988-1.037,0.715-1.952-0.361-2.974l-2.004-1.898l2.708-2.847l1.905,1.81
		c2.349,2.223,2.937,5.422,0.232,8.263c-2.83,2.983-6.051,2.55-8.39,0.324l-8.549-8.11c-2.333-2.233-2.936-5.423-0.096-8.411
		c2.704-2.842,6.078-2.259,8.559,0.101l1.218,1.158L303.99,307.811z"/>
	<polygon fill="#FFFFFF" points="332.159,295.828 312.406,284.29 317.708,275.208 320.664,276.932 317.342,282.624 322.431,285.591 
		324.986,281.217 327.939,282.945 325.383,287.315 331.187,290.718 334.736,284.64 337.693,286.359 	"/>
</g>
</svg>
